<?xml version="1.0" standalone="no"?>
<!DOCTYPE svg PUBLIC "-//W3C//DTD SVG 1.1//EN" "http://www.w3.org/Graphics/SVG/1.1/DTD/svg11.dtd" >
<svg xmlns="http://www.w3.org/2000/svg" xmlns:xlink="http://www.w3.org/1999/xlink" version="1.1">
<metadata>
Created by FontForge 20150913 at Fri Mar 25 08:21:17 2016
 By Jimmy Wärting
Generated in 2010 by FontLab Studio. Copyright info pending.
</metadata>
<defs>
<font id="Olney-Light" horiz-adv-x="590" >
  <font-face 
    font-family="Olney"
    font-weight="300"
    font-stretch="normal"
    units-per-em="1000"
    panose-1="0 0 0 0 0 0 0 0 0 0"
    ascent="750"
    descent="-250"
    x-height="531"
    cap-height="661"
    bbox="-100 -266 1230 998"
    underline-thickness="50"
    underline-position="-100"
    unicode-range="U+0020-FB04"
  />
<missing-glyph horiz-adv-x="323" 
 />
    <glyph glyph-name="ff" unicode="ff" horiz-adv-x="728" 
d="M288 731h40v-77h-62c-39 0 -45 -20 -45 -57v-66h259v85c0 90 51 145 168 145h40v-77h-62c-39 0 -45 -20 -45 -57v-96h97v-77h-97v-454h-101v454h-259v-454h-101v454h-80v77h80v55c0 90 51 145 168 145z" />
    <glyph glyph-name="ffi" unicode="ffi" horiz-adv-x="974" 
d="M288 731h40v-77h-62c-39 0 -45 -20 -45 -57v-66h229v85c0 90 51 145 168 145h40v-77h-62c-39 0 -45 -20 -45 -57v-96h97v-77h-97v-454h-101v454h-229v-454h-101v454h-80v77h80v55c0 90 51 145 168 145zM783 531h101v-531h-101v531zM773 731h121v-111h-121v111z" />
    <glyph glyph-name=".notdef" horiz-adv-x="323" 
 />
    <glyph glyph-name=".null" horiz-adv-x="0" 
 />
    <glyph glyph-name="A" unicode="A" horiz-adv-x="636" 
d="M10 0l239 661h137l240 -661h-108l-52 148h-297l-52 -148h-107zM318 570l-119 -337h238z" />
    <glyph glyph-name="AE" unicode="&#xc6;" horiz-adv-x="964" 
d="M437 0v168h-237l-87 -168h-103l353 661h531v-85h-350v-191h320v-85h-320v-215h350v-85h-457zM412 576l-168 -323h193v323h-25z" />
    <glyph glyph-name="AEacute" unicode="&#x1fc;" horiz-adv-x="964" 
d="M437 0v168h-237l-87 -168h-103l353 661h531v-85h-350v-191h320v-85h-320v-215h350v-85h-457zM412 576l-168 -323h193v323h-25zM605 781l-228 -72l-18 48l209 99z" />
    <glyph glyph-name="Aacute" unicode="&#xc1;" horiz-adv-x="636" 
d="M10 0l239 661h137l240 -661h-108l-52 148h-297l-52 -148h-107zM318 570l-119 -337h238zM450 773l-228 -72l-18 48l209 99z" />
    <glyph glyph-name="Abreve" unicode="&#x102;" horiz-adv-x="636" 
d="M10 0l239 661h137l240 -661h-108l-52 148h-297l-52 -148h-107zM318 570l-119 -337h238zM333 701h-31c-93 3 -162 45 -162 122h85c0 -20 16 -66 93 -66s93 46 93 66h85c0 -77 -70 -119 -163 -122z" />
    <glyph glyph-name="Acircumflex" unicode="&#xc2;" horiz-adv-x="636" 
d="M10 0l239 661h137l240 -661h-108l-52 148h-297l-52 -148h-107zM318 570l-119 -337h238zM318 805l-120 -104h-75l145 150h100l145 -150h-75z" />
    <glyph glyph-name="Adieresis" unicode="&#xc4;" horiz-adv-x="636" 
d="M10 0l239 661h137l240 -661h-108l-52 148h-297l-52 -148h-107zM318 570l-119 -337h238zM172 701v111h121v-111h-121zM343 701v111h121v-111h-121z" />
    <glyph glyph-name="Agrave" unicode="&#xc0;" horiz-adv-x="636" 
d="M10 0l239 661h137l240 -661h-108l-52 148h-297l-52 -148h-107zM318 570l-119 -337h238zM407 701l-228 72l37 75l209 -99z" />
    <glyph glyph-name="Amacron" unicode="&#x100;" horiz-adv-x="636" 
d="M10 0l239 661h137l240 -661h-108l-52 148h-297l-52 -148h-107zM318 570l-119 -337h238zM144 701v80h348v-80h-348z" />
    <glyph glyph-name="Aogonek" unicode="&#x104;" horiz-adv-x="636" 
d="M552 -80c-8 -41 13 -71 52 -71h15v-46h-28c-73 0 -116 48 -103 112c9 43 42 65 77 85h-47l-52 148h-297l-52 -148h-107l239 661h137l240 -661c-45 -27 -69 -55 -74 -80zM318 570l-119 -337h238z" />
    <glyph glyph-name="Aring" unicode="&#xc5;" horiz-adv-x="636" 
d="M10 0l239 661h137l240 -661h-108l-52 148h-297l-52 -148h-107zM318 570l-119 -337h238zM318 865c62 0 96 -27 96 -82s-34 -82 -96 -82s-96 27 -96 82s34 82 96 82zM318 750c23 0 37 13 37 33c0 21 -11 33 -37 33s-37 -12 -37 -33c0 -20 14 -33 37 -33z" />
    <glyph glyph-name="Aringacute" unicode="&#x1fa;" horiz-adv-x="636" 
d="M10 0l239 661h137l240 -661h-108l-52 148h-297l-52 -148h-107zM318 570l-119 -337h238zM318 845c62 0 96 -27 96 -82s-34 -82 -96 -82s-96 27 -96 82s34 82 96 82zM318 730c23 0 37 13 37 33c0 21 -11 33 -37 33s-37 -12 -37 -33c0 -20 14 -33 37 -33zM450 923l-228 -72
l-18 48l209 99z" />
    <glyph glyph-name="Atilde" unicode="&#xc3;" horiz-adv-x="636" 
d="M10 0l239 661h137l240 -661h-108l-52 148h-297l-52 -148h-107zM318 570l-119 -337h238zM410 701c-88 0 -135 64 -185 64c-37 0 -53 -19 -69 -52l-43 24c30 72 66 100 116 100c87 0 131 -65 183 -65c37 0 52 20 68 53l43 -25c-30 -72 -65 -99 -113 -99z" />
    <glyph glyph-name="B" unicode="B" horiz-adv-x="664" 
d="M80 0v661h335c144 0 187 -54 187 -140v-63c0 -75 -51 -123 -104 -120c53 -3 106 -41 106 -119v-79c0 -86 -45 -140 -189 -140h-335zM187 293v-208h259c40 0 53 8 53 43v122c0 35 -13 43 -53 43h-259zM187 576v-193h255c40 0 53 8 53 43v107c0 35 -13 43 -53 43h-255z" />
    <glyph glyph-name="C" unicode="C" horiz-adv-x="574" 
d="M187 148c0 -45 13 -63 53 -63h304v-85h-275c-117 0 -189 60 -189 170v321c0 110 72 170 189 170h275v-85h-304c-40 0 -53 -18 -53 -63v-365z" />
    <glyph glyph-name="CR" horiz-adv-x="323" 
 />
    <glyph glyph-name="Cacute" unicode="&#x106;" horiz-adv-x="574" 
d="M187 148c0 -45 13 -63 53 -63h304v-85h-275c-117 0 -189 60 -189 170v321c0 110 72 170 189 170h275v-85h-304c-40 0 -53 -18 -53 -63v-365zM444 773l-228 -72l-18 48l209 99z" />
    <glyph glyph-name="Ccaron" unicode="&#x10c;" horiz-adv-x="574" 
d="M187 148c0 -45 13 -63 53 -63h304v-85h-275c-117 0 -189 60 -189 170v321c0 110 72 170 189 170h275v-85h-304c-40 0 -53 -18 -53 -63v-365zM192 851l120 -104l120 104h75l-145 -150h-100l-145 150h75z" />
    <glyph glyph-name="Ccedilla" unicode="&#xc7;" horiz-adv-x="574" 
d="M302 -107c4 21 -6 40 -32 40h-60l12 67h38c-112 3 -180 62 -180 170v321c0 110 72 170 189 170h275v-85h-304c-40 0 -53 -18 -53 -63v-365c0 -45 13 -63 53 -63h304v-85h-262l-4 -29c66 0 103 -15 98 -78c-6 -72 -56 -90 -111 -90h-72l11 46h52c31 0 42 23 46 44z" />
    <glyph glyph-name="Ccircumflex" unicode="&#x108;" horiz-adv-x="574" 
d="M187 148c0 -45 13 -63 53 -63h304v-85h-275c-117 0 -189 60 -189 170v321c0 110 72 170 189 170h275v-85h-304c-40 0 -53 -18 -53 -63v-365zM312 805l-120 -104h-75l145 150h100l145 -150h-75z" />
    <glyph glyph-name="Cdotaccent" unicode="&#x10a;" horiz-adv-x="574" 
d="M187 148c0 -45 13 -63 53 -63h304v-85h-275c-117 0 -189 60 -189 170v321c0 110 72 170 189 170h275v-85h-304c-40 0 -53 -18 -53 -63v-365zM252 701v111h121v-111h-121z" />
    <glyph glyph-name="D" unicode="D" horiz-adv-x="668" 
d="M608 491v-321c0 -110 -82 -170 -199 -170h-329v661h329c117 0 199 -60 199 -170zM187 576v-491h251c40 0 63 18 63 63v365c0 45 -23 63 -63 63h-251z" />
    <glyph glyph-name="Dcroat" unicode="&#x110;" horiz-adv-x="668" 
d="M11 298v80h69v283h329c117 0 199 -60 199 -170v-321c0 -110 -82 -170 -199 -170h-329v298h-69zM187 576v-198h172v-80h-172v-213h251c40 0 63 18 63 63v365c0 45 -23 63 -63 63h-251z" />
    <glyph glyph-name="E" unicode="E" horiz-adv-x="607" 
d="M80 0v661h457v-85h-350v-191h320v-85h-320v-215h350v-85h-457z" />
    <glyph glyph-name="Eacute" unicode="&#xc9;" horiz-adv-x="607" 
d="M80 0v661h457v-85h-350v-191h320v-85h-320v-215h350v-85h-457zM440 773l-228 -72l-18 48l209 99z" />
    <glyph glyph-name="Ebreve" unicode="&#x114;" horiz-adv-x="607" 
d="M80 0v661h457v-85h-350v-191h320v-85h-320v-215h350v-85h-457zM323 701h-31c-93 3 -162 45 -162 122h85c0 -20 16 -66 93 -66s93 46 93 66h85c0 -77 -70 -119 -163 -122z" />
    <glyph glyph-name="Ecaron" unicode="&#x11a;" horiz-adv-x="607" 
d="M80 0v661h457v-85h-350v-191h320v-85h-320v-215h350v-85h-457zM188 851l120 -104l120 104h75l-145 -150h-100l-145 150h75z" />
    <glyph glyph-name="Ecircumflex" unicode="&#xca;" horiz-adv-x="607" 
d="M80 0v661h457v-85h-350v-191h320v-85h-320v-215h350v-85h-457zM308 805l-120 -104h-75l145 150h100l145 -150h-75z" />
    <glyph glyph-name="Edieresis" unicode="&#xcb;" horiz-adv-x="607" 
d="M80 0v661h457v-85h-350v-191h320v-85h-320v-215h350v-85h-457zM162 701v111h121v-111h-121zM333 701v111h121v-111h-121z" />
    <glyph glyph-name="Edotaccent" unicode="&#x116;" horiz-adv-x="607" 
d="M80 0v661h457v-85h-350v-191h320v-85h-320v-215h350v-85h-457zM248 701v111h121v-111h-121z" />
    <glyph glyph-name="Egrave" unicode="&#xc8;" horiz-adv-x="607" 
d="M80 0v661h457v-85h-350v-191h320v-85h-320v-215h350v-85h-457zM397 701l-228 72l37 75l209 -99z" />
    <glyph glyph-name="Emacron" unicode="&#x112;" horiz-adv-x="607" 
d="M80 0v661h457v-85h-350v-191h320v-85h-320v-215h350v-85h-457zM134 701v80h348v-80h-348z" />
    <glyph glyph-name="Eng" unicode="&#x14a;" horiz-adv-x="752" 
d="M80 0v661h179l306 -591v591h107v-670c0 -110 -92 -170 -209 -170h-165v85h214c40 0 53 18 53 63v31h-72l-306 591v-591h-107z" />
    <glyph glyph-name="Eogonek" unicode="&#x118;" horiz-adv-x="607" 
d="M80 0v661h457v-85h-350v-191h320v-85h-320v-215h350v-85c-45 -27 -69 -55 -74 -80c-8 -41 13 -71 52 -71h15v-46h-28c-73 0 -116 48 -103 112c9 43 42 65 77 85h-396z" />
    <glyph glyph-name="Eth" unicode="&#xd0;" horiz-adv-x="667" 
d="M20 285v100h59v276h329c117 0 199 -60 199 -170v-321c0 -110 -82 -170 -199 -170h-329v285h-59zM186 576v-191h207v-100h-207v-200h251c40 0 63 18 63 63v365c0 45 -23 63 -63 63h-251z" />
    <glyph glyph-name="Euro" unicode="&#x20ac;" horiz-adv-x="627" 
d="M50 369v60h93v62c0 110 72 170 189 170h234c-5 -17 -23 -52 -34 -85h-229c-40 0 -53 -18 -53 -63v-84h237l-21 -60h-216v-49h208l-22 -60h-186v-112c0 -45 13 -63 53 -63h274v-85h-245c-117 0 -189 60 -189 170v90h-93v60h93v49h-93z" />
    <glyph glyph-name="F" unicode="F" horiz-adv-x="567" 
d="M80 0v661h457v-85h-350v-193h320v-85h-320v-298h-107z" />
    <glyph glyph-name="G" unicode="G" horiz-adv-x="654" 
d="M177 148c0 -45 13 -63 53 -63h257v266h107v-351h-335c-117 0 -189 60 -189 170v321c0 110 72 170 189 170h335v-85h-364c-40 0 -53 -18 -53 -63v-365z" />
    <glyph glyph-name="Gbreve" unicode="&#x11e;" horiz-adv-x="654" 
d="M177 148c0 -45 13 -63 53 -63h257v266h107v-351h-335c-117 0 -189 60 -189 170v321c0 110 72 170 189 170h335v-85h-364c-40 0 -53 -18 -53 -63v-365zM347 701h-31c-93 3 -162 45 -162 122h85c0 -20 16 -66 93 -66s93 46 93 66h85c0 -77 -70 -119 -163 -122z" />
    <glyph glyph-name="Gcircumflex" unicode="&#x11c;" horiz-adv-x="654" 
d="M177 148c0 -45 13 -63 53 -63h257v266h107v-351h-335c-117 0 -189 60 -189 170v321c0 110 72 170 189 170h335v-85h-364c-40 0 -53 -18 -53 -63v-365zM332 805l-120 -104h-75l145 150h100l145 -150h-75z" />
    <glyph glyph-name="Gcommaaccent" unicode="&#x122;" horiz-adv-x="654" 
d="M177 148c0 -45 13 -63 53 -63h257v266h107v-351h-335c-117 0 -189 60 -189 170v321c0 110 72 170 189 170h335v-85h-364c-40 0 -53 -18 -53 -63v-365zM291 -111v81h121v-81l-110 -109h-61z" />
    <glyph glyph-name="Gdotaccent" unicode="&#x120;" horiz-adv-x="654" 
d="M177 148c0 -45 13 -63 53 -63h257v266h107v-351h-335c-117 0 -189 60 -189 170v321c0 110 72 170 189 170h335v-85h-364c-40 0 -53 -18 -53 -63v-365zM272 701v111h121v-111h-121z" />
    <glyph glyph-name="H" unicode="H" horiz-adv-x="732" 
d="M545 0v279h-358v-279h-107v661h107v-297h358v297h107v-661h-107z" />
    <glyph glyph-name="Hcircumflex" unicode="&#x124;" horiz-adv-x="732" 
d="M545 0v279h-358v-279h-107v661h107v-297h358v297h107v-661h-107zM366 815l-120 -104h-75l145 150h100l145 -150h-75z" />
    <glyph glyph-name="I" unicode="I" horiz-adv-x="267" 
d="M80 0v661h107v-661h-107z" />
    <glyph glyph-name="Iacute" unicode="&#xcd;" horiz-adv-x="267" 
d="M80 0v661h107v-661h-107zM265 773l-228 -72l-18 48l209 99z" />
    <glyph glyph-name="Ibreve" unicode="&#x12c;" horiz-adv-x="267" 
d="M80 0v661h107v-661h-107zM148 701h-31c-93 3 -162 45 -162 122h85c0 -20 16 -66 93 -66s93 46 93 66h85c0 -77 -70 -119 -163 -122z" />
    <glyph glyph-name="Icircumflex" unicode="&#xce;" horiz-adv-x="267" 
d="M80 0v661h107v-661h-107zM133 805l-120 -104h-75l145 150h100l145 -150h-75z" />
    <glyph glyph-name="Idieresis" unicode="&#xcf;" horiz-adv-x="267" 
d="M80 0v661h107v-661h-107zM-13 701v111h121v-111h-121zM158 701v111h121v-111h-121z" />
    <glyph glyph-name="Idotaccent" unicode="&#x130;" horiz-adv-x="261" 
d="M77 0v661h107v-661h-107zM70 701v111h121v-111h-121z" />
    <glyph glyph-name="Igrave" unicode="&#xcc;" horiz-adv-x="267" 
d="M80 0v661h107v-661h-107zM222 701l-228 72l37 75l209 -99z" />
    <glyph glyph-name="Imacron" unicode="&#x12a;" horiz-adv-x="267" 
d="M80 0v661h107v-661h-107zM-41 701v80h348v-80h-348z" />
    <glyph glyph-name="Iogonek" unicode="&#x12e;" horiz-adv-x="267" 
d="M80 0v661h107v-661c-45 -27 -69 -55 -74 -80c-8 -41 13 -71 52 -71h15v-46h-28c-73 0 -116 48 -103 112c9 43 42 65 77 85h-46z" />
    <glyph glyph-name="Itilde" unicode="&#x128;" horiz-adv-x="267" 
d="M80 0v661h107v-661h-107zM225 701c-88 0 -135 64 -185 64c-37 0 -53 -19 -69 -52l-43 24c30 72 66 100 116 100c87 0 131 -65 183 -65c37 0 52 20 68 53l43 -25c-30 -72 -65 -99 -113 -99z" />
    <glyph glyph-name="J" unicode="J" horiz-adv-x="514" 
d="M327 148v513h107v-491c0 -110 -92 -170 -209 -170h-165v85h214c40 0 53 18 53 63z" />
    <glyph glyph-name="Jcircumflex" unicode="&#x134;" horiz-adv-x="514" 
d="M327 148v513h107v-491c0 -110 -92 -170 -209 -170h-165v85h214c40 0 53 18 53 63zM381 805l-120 -104h-75l145 150h100l145 -150h-75z" />
    <glyph glyph-name="K" unicode="K" horiz-adv-x="653" 
d="M333 343h1l289 -343h-127l-246 288h-63v-288h-107v661h107v-288h63l226 288h124z" />
    <glyph glyph-name="Kcommaaccent" unicode="&#x136;" horiz-adv-x="653" 
d="M333 343h1l289 -343h-127l-246 288h-63v-288h-107v661h107v-288h63l226 288h124zM291 -111v81h121v-81l-110 -109h-61z" />
    <glyph glyph-name="L" unicode="L" horiz-adv-x="567" 
d="M80 0v661h107v-576h350v-85h-457z" />
    <glyph glyph-name="Lacute" unicode="&#x139;" horiz-adv-x="567" 
d="M80 0v661h107v-576h350v-85h-457zM254 773l-228 -72l-18 48l209 99z" />
    <glyph glyph-name="M" unicode="M" horiz-adv-x="896" 
d="M80 0v661h191v-1l177 -588l177 588v1h191v-661h-107v606l-191 -606h-140l-191 606v-606h-107z" />
    <glyph glyph-name="N" unicode="N" horiz-adv-x="752" 
d="M80 0v661h177l308 -587v587h107v-661h-179l-306 587v-587h-107z" />
    <glyph glyph-name="Nacute" unicode="&#x143;" horiz-adv-x="752" 
d="M80 0v661h177l308 -587v587h107v-661h-179l-306 587v-587h-107zM518 773l-228 -72l-18 48l209 99z" />
    <glyph glyph-name="Ncaron" unicode="&#x147;" horiz-adv-x="752" 
d="M80 0v661h177l308 -587v587h107v-661h-179l-306 587v-587h-107zM256 851l120 -104l120 104h75l-145 -150h-100l-145 150h75z" />
    <glyph glyph-name="Ncommaaccent" unicode="&#x145;" horiz-adv-x="752" 
d="M80 0v661h177l308 -587v587h107v-661h-179l-306 587v-587h-107zM340 -111v81h121v-81l-110 -109h-61z" />
    <glyph glyph-name="Ntilde" unicode="&#xd1;" horiz-adv-x="752" 
d="M80 0v661h177l308 -587v587h107v-661h-179l-306 587v-587h-107zM468 701c-88 0 -135 64 -185 64c-37 0 -53 -19 -69 -52l-43 24c30 72 66 100 116 100c87 0 131 -65 183 -65c37 0 52 20 68 53l43 -25c-30 -72 -65 -99 -113 -99z" />
    <glyph glyph-name="O" unicode="O" horiz-adv-x="673" 
d="M613 491v-321c0 -110 -72 -170 -189 -170h-175c-117 0 -189 60 -189 170v321c0 110 72 170 189 170h175c117 0 189 -60 189 -170zM167 148c0 -45 13 -63 53 -63h233c40 0 53 18 53 63v365c0 45 -13 63 -53 63h-233c-40 0 -53 -18 -53 -63v-365z" />
    <glyph glyph-name="OE" unicode="&#x152;" horiz-adv-x="1033" 
d="M60 491c0 110 72 170 189 170h714v-85h-350v-191h320v-85h-320v-215h350v-85h-714c-117 0 -189 60 -189 170v321zM167 148c0 -45 13 -63 53 -63h233c40 0 53 18 53 63v374c-2 38 -16 54 -53 54h-233c-40 0 -53 -18 -53 -63v-365z" />
    <glyph glyph-name="Oacute" unicode="&#xd3;" horiz-adv-x="673" 
d="M613 491v-321c0 -110 -72 -170 -189 -170h-175c-117 0 -189 60 -189 170v321c0 110 72 170 189 170h175c117 0 189 -60 189 -170zM167 148c0 -45 13 -63 53 -63h233c40 0 53 18 53 63v365c0 45 -13 63 -53 63h-233c-40 0 -53 -18 -53 -63v-365zM468 773l-228 -72l-18 48
l209 99z" />
    <glyph glyph-name="Obreve" unicode="&#x14e;" horiz-adv-x="673" 
d="M613 491v-321c0 -110 -72 -170 -189 -170h-175c-117 0 -189 60 -189 170v321c0 110 72 170 189 170h175c117 0 189 -60 189 -170zM167 148c0 -45 13 -63 53 -63h233c40 0 53 18 53 63v365c0 45 -13 63 -53 63h-233c-40 0 -53 -18 -53 -63v-365zM351 701h-31
c-93 3 -162 45 -162 122h85c0 -20 16 -66 93 -66s93 46 93 66h85c0 -77 -70 -119 -163 -122z" />
    <glyph glyph-name="Ocircumflex" unicode="&#xd4;" horiz-adv-x="673" 
d="M613 491v-321c0 -110 -72 -170 -189 -170h-175c-117 0 -189 60 -189 170v321c0 110 72 170 189 170h175c117 0 189 -60 189 -170zM167 148c0 -45 13 -63 53 -63h233c40 0 53 18 53 63v365c0 45 -13 63 -53 63h-233c-40 0 -53 -18 -53 -63v-365zM336 805l-120 -104h-75
l145 150h100l145 -150h-75z" />
    <glyph glyph-name="Odieresis" unicode="&#xd6;" horiz-adv-x="673" 
d="M613 491v-321c0 -110 -72 -170 -189 -170h-175c-117 0 -189 60 -189 170v321c0 110 72 170 189 170h175c117 0 189 -60 189 -170zM167 148c0 -45 13 -63 53 -63h233c40 0 53 18 53 63v365c0 45 -13 63 -53 63h-233c-40 0 -53 -18 -53 -63v-365zM190 701v111h121v-111
h-121zM361 701v111h121v-111h-121z" />
    <glyph glyph-name="Ograve" unicode="&#xd2;" horiz-adv-x="673" 
d="M613 491v-321c0 -110 -72 -170 -189 -170h-175c-117 0 -189 60 -189 170v321c0 110 72 170 189 170h175c117 0 189 -60 189 -170zM167 148c0 -45 13 -63 53 -63h233c40 0 53 18 53 63v365c0 45 -13 63 -53 63h-233c-40 0 -53 -18 -53 -63v-365zM425 701l-228 72l37 75
l209 -99z" />
    <glyph glyph-name="Ohungarumlaut" unicode="&#x150;" horiz-adv-x="673" 
d="M613 491v-321c0 -110 -72 -170 -189 -170h-175c-117 0 -189 60 -189 170v321c0 110 72 170 189 170h175c117 0 189 -60 189 -170zM167 148c0 -45 13 -63 53 -63h233c40 0 53 18 53 63v365c0 45 -13 63 -53 63h-233c-40 0 -53 -18 -53 -63v-365zM342 811l-147 -110l-40 40
l127 126zM518 811l-147 -110l-40 40l127 126z" />
    <glyph glyph-name="Omacron" unicode="&#x14c;" horiz-adv-x="673" 
d="M613 491v-321c0 -110 -72 -170 -189 -170h-175c-117 0 -189 60 -189 170v321c0 110 72 170 189 170h175c117 0 189 -60 189 -170zM167 148c0 -45 13 -63 53 -63h233c40 0 53 18 53 63v365c0 45 -13 63 -53 63h-233c-40 0 -53 -18 -53 -63v-365zM162 701v80h348v-80h-348z
" />
    <glyph glyph-name="Otilde" unicode="&#xd5;" horiz-adv-x="673" 
d="M613 491v-321c0 -110 -72 -170 -189 -170h-175c-117 0 -189 60 -189 170v321c0 110 72 170 189 170h175c117 0 189 -60 189 -170zM167 148c0 -45 13 -63 53 -63h233c40 0 53 18 53 63v365c0 45 -13 63 -53 63h-233c-40 0 -53 -18 -53 -63v-365zM428 701
c-88 0 -135 64 -185 64c-37 0 -53 -19 -69 -52l-43 24c30 72 66 100 116 100c87 0 131 -65 183 -65c37 0 52 20 68 53l43 -25c-30 -72 -65 -99 -113 -99z" />
    <glyph glyph-name="P" unicode="P" horiz-adv-x="628" 
d="M80 0v661h309c117 0 199 -60 199 -170v-121c0 -110 -82 -170 -199 -170h-202v-200h-107zM187 576v-291h231c40 0 63 18 63 63v165c0 45 -23 63 -63 63h-231z" />
    <glyph glyph-name="Q" unicode="Q" horiz-adv-x="696" 
d="M633 491v-321c0 -108 -69 -167 -181 -170h214v-91l-301 40v51h-96c-117 0 -189 60 -189 170v321c0 110 72 170 189 170h175c117 0 189 -60 189 -170zM187 148c0 -45 13 -63 53 -63h233c40 0 53 18 53 63v365c0 45 -13 63 -53 63h-233c-40 0 -53 -18 -53 -63v-365z" />
    <glyph glyph-name="R" unicode="R" horiz-adv-x="654" 
d="M486 249l128 -249h-116l-112 240h-199v-240h-107v661h286c150 0 207 -31 207 -164v-128c0 -75 -47 -112 -87 -120zM187 576v-251h226c31 0 53 11 53 43v165c0 32 -22 43 -53 43h-226z" />
    <glyph glyph-name="Racute" unicode="&#x154;" horiz-adv-x="654" 
d="M486 249l128 -249h-116l-112 240h-199v-240h-107v661h286c150 0 207 -31 207 -164v-128c0 -75 -47 -112 -87 -120zM187 576v-251h226c31 0 53 11 53 43v165c0 32 -22 43 -53 43h-226zM433 773l-228 -72l-18 48l209 99z" />
    <glyph glyph-name="Rcaron" unicode="&#x158;" horiz-adv-x="654" 
d="M486 249l128 -249h-116l-112 240h-199v-240h-107v661h286c150 0 207 -31 207 -164v-128c0 -75 -47 -112 -87 -120zM187 576v-251h226c31 0 53 11 53 43v165c0 32 -22 43 -53 43h-226zM181 851l120 -104l120 104h75l-145 -150h-100l-145 150h75z" />
    <glyph glyph-name="Rcommaaccent" unicode="&#x156;" horiz-adv-x="654" 
d="M486 249l128 -249h-116l-112 240h-199v-240h-107v661h286c150 0 207 -31 207 -164v-128c0 -75 -47 -112 -87 -120zM187 576v-251h226c31 0 53 11 53 43v165c0 32 -22 43 -53 43h-226zM291 -111v81h121v-81l-110 -109h-61z" />
    <glyph glyph-name="S" unicode="S" horiz-adv-x="619" 
d="M462 120v147l-295 39c-78 10 -117 78 -117 148v27c0 117 76 180 201 180h285v-85h-323c-42 0 -56 -9 -56 -35v-141l295 -41c88 -12 117 -72 117 -152v-27c0 -117 -76 -180 -201 -180h-305v85h343c42 0 56 9 56 35z" />
    <glyph glyph-name="Sacute" unicode="&#x15a;" horiz-adv-x="619" 
d="M462 120v147l-295 39c-78 10 -117 78 -117 148v27c0 117 76 180 201 180h285v-85h-323c-42 0 -56 -9 -56 -35v-141l295 -41c88 -12 117 -72 117 -152v-27c0 -117 -76 -180 -201 -180h-305v85h343c42 0 56 9 56 35zM441 773l-228 -72l-18 48l209 99z" />
    <glyph glyph-name="Scaron" unicode="&#x160;" horiz-adv-x="619" 
d="M462 120v147l-295 39c-78 10 -117 78 -117 148v27c0 117 76 180 201 180h285v-85h-323c-42 0 -56 -9 -56 -35v-141l295 -41c88 -12 117 -72 117 -152v-27c0 -117 -76 -180 -201 -180h-305v85h343c42 0 56 9 56 35zM189 851l120 -104l120 104h75l-145 -150h-100l-145 150
h75z" />
    <glyph glyph-name="Scedilla" unicode="&#x15e;" horiz-adv-x="619" 
d="M324 -107c4 21 -6 40 -32 40h-60l12 67h-181v85h343c42 0 56 9 56 35v147l-295 39c-78 10 -117 78 -117 148v27c0 117 76 180 201 180h285v-85h-323c-42 0 -56 -9 -56 -35v-141l295 -41c88 -12 117 -72 117 -152v-27c0 -117 -76 -180 -201 -180h-64l-4 -29
c66 0 103 -15 98 -78c-6 -72 -56 -90 -111 -90h-72l11 46h52c31 0 42 23 46 44z" />
    <glyph glyph-name="Scircumflex" unicode="&#x15c;" horiz-adv-x="619" 
d="M462 120v147l-295 39c-78 10 -117 78 -117 148v27c0 117 76 180 201 180h285v-85h-323c-42 0 -56 -9 -56 -35v-141l295 -41c88 -12 117 -72 117 -152v-27c0 -117 -76 -180 -201 -180h-305v85h343c42 0 56 9 56 35zM309 805l-120 -104h-75l145 150h100l145 -150h-75z" />
    <glyph glyph-name="Scommaaccent" unicode="&#x218;" horiz-adv-x="619" 
d="M462 120v147l-295 39c-78 10 -117 78 -117 148v27c0 117 76 180 201 180h285v-85h-323c-42 0 -56 -9 -56 -35v-141l295 -41c88 -12 117 -72 117 -152v-27c0 -117 -76 -180 -201 -180h-305v85h343c42 0 56 9 56 35zM270 -111v81h121v-81l-110 -109h-61z" />
    <glyph glyph-name="T" unicode="T" horiz-adv-x="621" 
d="M40 580v81h541v-81h-217v-580h-107v580h-217z" />
    <glyph glyph-name="Tcaron" unicode="&#x164;" horiz-adv-x="621" 
d="M40 580v81h541v-81h-217v-580h-107v580h-217zM190 851l120 -104l120 104h75l-145 -150h-100l-145 150h75z" />
    <glyph glyph-name="Tcommaaccent" unicode="&#x162;" horiz-adv-x="621" 
d="M40 580v81h541v-81h-217v-580h-107v580h-217zM248 -111v81h121v-81l-110 -109h-61z" />
    <glyph glyph-name="Thorn" unicode="&#xde;" horiz-adv-x="668" 
d="M80 0v730h107v-139h202c117 0 199 -60 199 -170v-121c0 -110 -82 -170 -199 -170h-202v-130h-107zM187 521v-321h231c40 0 63 18 63 63v195c0 45 -23 63 -63 63h-231z" />
    <glyph glyph-name="U" unicode="U" horiz-adv-x="643" 
d="M50 180v481h107v-513c0 -45 23 -63 63 -63h203c40 0 63 18 63 63v513h107v-481c0 -110 -82 -180 -199 -180h-145c-117 0 -199 70 -199 180z" />
    <glyph glyph-name="Uacute" unicode="&#xda;" horiz-adv-x="643" 
d="M50 180v481h107v-513c0 -45 23 -63 63 -63h203c40 0 63 18 63 63v513h107v-481c0 -110 -82 -180 -199 -180h-145c-117 0 -199 70 -199 180zM453 773l-228 -72l-18 48l209 99z" />
    <glyph glyph-name="Ubreve" unicode="&#x16c;" horiz-adv-x="643" 
d="M50 180v481h107v-513c0 -45 23 -63 63 -63h203c40 0 63 18 63 63v513h107v-481c0 -110 -82 -180 -199 -180h-145c-117 0 -199 70 -199 180zM336 701h-31c-93 3 -162 45 -162 122h85c0 -20 16 -66 93 -66s93 46 93 66h85c0 -77 -70 -119 -163 -122z" />
    <glyph glyph-name="Ucircumflex" unicode="&#xdb;" horiz-adv-x="643" 
d="M50 180v481h107v-513c0 -45 23 -63 63 -63h203c40 0 63 18 63 63v513h107v-481c0 -110 -82 -180 -199 -180h-145c-117 0 -199 70 -199 180zM321 805l-120 -104h-75l145 150h100l145 -150h-75z" />
    <glyph glyph-name="Udieresis" unicode="&#xdc;" horiz-adv-x="643" 
d="M50 180v481h107v-513c0 -45 23 -63 63 -63h203c40 0 63 18 63 63v513h107v-481c0 -110 -82 -180 -199 -180h-145c-117 0 -199 70 -199 180zM175 701v111h121v-111h-121zM346 701v111h121v-111h-121z" />
    <glyph glyph-name="Ugrave" unicode="&#xd9;" horiz-adv-x="643" 
d="M50 180v481h107v-513c0 -45 23 -63 63 -63h203c40 0 63 18 63 63v513h107v-481c0 -110 -82 -180 -199 -180h-145c-117 0 -199 70 -199 180zM410 701l-228 72l37 75l209 -99z" />
    <glyph glyph-name="Uhungarumlaut" unicode="&#x170;" horiz-adv-x="643" 
d="M50 180v481h107v-513c0 -45 23 -63 63 -63h203c40 0 63 18 63 63v513h107v-481c0 -110 -82 -180 -199 -180h-145c-117 0 -199 70 -199 180zM327 811l-147 -110l-40 40l127 126zM503 811l-147 -110l-40 40l127 126z" />
    <glyph glyph-name="Umacron" unicode="&#x16a;" horiz-adv-x="643" 
d="M50 180v481h107v-513c0 -45 23 -63 63 -63h203c40 0 63 18 63 63v513h107v-481c0 -110 -82 -180 -199 -180h-145c-117 0 -199 70 -199 180zM147 701v80h348v-80h-348z" />
    <glyph glyph-name="Uogonek" unicode="&#x172;" horiz-adv-x="643" 
d="M339 -80c-8 -41 13 -71 52 -71h15v-46h-28c-73 0 -116 48 -103 112c9 43 42 65 77 85h-103c-117 0 -199 70 -199 180v481h107v-513c0 -45 23 -63 63 -63h203c40 0 63 18 63 63v513h107v-481c0 -108 -78 -177 -191 -180h11c-45 -27 -69 -55 -74 -80z" />
    <glyph glyph-name="Uring" unicode="&#x16e;" horiz-adv-x="643" 
d="M50 180v481h107v-513c0 -45 23 -63 63 -63h203c40 0 63 18 63 63v513h107v-481c0 -110 -82 -180 -199 -180h-145c-117 0 -199 70 -199 180zM321 865c62 0 96 -27 96 -82s-34 -82 -96 -82s-96 27 -96 82s34 82 96 82zM321 750c23 0 37 13 37 33c0 21 -11 33 -37 33
s-37 -12 -37 -33c0 -20 14 -33 37 -33z" />
    <glyph glyph-name="Utilde" unicode="&#x168;" horiz-adv-x="643" 
d="M50 180v481h107v-513c0 -45 23 -63 63 -63h203c40 0 63 18 63 63v513h107v-481c0 -110 -82 -180 -199 -180h-145c-117 0 -199 70 -199 180zM413 701c-88 0 -135 64 -185 64c-37 0 -53 -19 -69 -52l-43 24c30 72 66 100 116 100c87 0 131 -65 183 -65c37 0 52 20 68 53
l43 -25c-30 -72 -65 -99 -113 -99z" />
    <glyph glyph-name="V" unicode="V" horiz-adv-x="616" 
d="M239 0l-229 661h107l191 -570l190 570h108l-230 -661h-137z" />
    <glyph glyph-name="W" unicode="W" horiz-adv-x="928" 
d="M185 0l-175 661h107l143 -580l138 580h132l138 -580l143 580h107l-175 -661h-150l-129 555l-129 -555h-150z" />
    <glyph glyph-name="Wacute" unicode="&#x1e82;" horiz-adv-x="928" 
d="M185 0l-175 661h107l143 -580l138 580h132l138 -580l143 580h107l-175 -661h-150l-129 555l-129 -555h-150zM596 773l-228 -72l-18 48l209 99z" />
    <glyph glyph-name="Wcircumflex" unicode="&#x174;" horiz-adv-x="928" 
d="M185 0l-175 661h107l143 -580l138 580h132l138 -580l143 580h107l-175 -661h-150l-129 555l-129 -555h-150zM464 805l-120 -104h-75l145 150h100l145 -150h-75z" />
    <glyph glyph-name="Wdieresis" unicode="&#x1e84;" horiz-adv-x="928" 
d="M185 0l-175 661h107l143 -580l138 580h132l138 -580l143 580h107l-175 -661h-150l-129 555l-129 -555h-150zM318 701v111h121v-111h-121zM489 701v111h121v-111h-121z" />
    <glyph glyph-name="Wgrave" unicode="&#x1e80;" horiz-adv-x="928" 
d="M185 0l-175 661h107l143 -580l138 580h132l138 -580l143 580h107l-175 -661h-150l-129 555l-129 -555h-150zM553 701l-228 72l37 75l209 -99z" />
    <glyph glyph-name="X" unicode="X" horiz-adv-x="643" 
d="M401 330l202 -330h-118l-164 274l-163 -274h-118l202 330l-202 331h118l163 -276l164 276h118z" />
    <glyph glyph-name="Y" unicode="Y" horiz-adv-x="627" 
d="M617 661l-250 -447v-214h-107v214l-250 447h118l185 -360l186 360h118z" />
    <glyph glyph-name="Yacute" unicode="&#xdd;" horiz-adv-x="627" 
d="M617 661l-250 -447v-214h-107v214l-250 447h118l185 -360l186 360h118zM445 773l-228 -72l-18 48l209 99z" />
    <glyph glyph-name="Ycircumflex" unicode="&#x176;" horiz-adv-x="627" 
d="M617 661l-250 -447v-214h-107v214l-250 447h118l185 -360l186 360h118zM313 805l-120 -104h-75l145 150h100l145 -150h-75z" />
    <glyph glyph-name="Ydieresis" unicode="&#x178;" horiz-adv-x="627" 
d="M617 661l-250 -447v-214h-107v214l-250 447h118l185 -360l186 360h118zM167 701v111h121v-111h-121zM338 701v111h121v-111h-121z" />
    <glyph glyph-name="Ygrave" unicode="&#x1ef2;" horiz-adv-x="627" 
d="M617 661l-250 -447v-214h-107v214l-250 447h118l185 -360l186 360h118zM402 701l-228 72l37 75l209 -99z" />
    <glyph glyph-name="Z" unicode="Z" horiz-adv-x="611" 
d="M561 591l-386 -506h396v-85h-531v72h1l386 504h-367v85h501v-70z" />
    <glyph glyph-name="Zacute" unicode="&#x179;" horiz-adv-x="611" 
d="M561 591l-386 -506h396v-85h-531v72h1l386 504h-367v85h501v-70zM437 773l-228 -72l-18 48l209 99z" />
    <glyph glyph-name="Zcaron" unicode="&#x17d;" horiz-adv-x="611" 
d="M561 591l-386 -506h396v-85h-531v72h1l386 504h-367v85h501v-70zM185 851l120 -104l120 104h75l-145 -150h-100l-145 150h75z" />
    <glyph glyph-name="Zdotaccent" unicode="&#x17b;" horiz-adv-x="611" 
d="M561 591l-386 -506h396v-85h-531v72h1l386 504h-367v85h501v-70zM245 701v111h121v-111h-121z" />
    <glyph glyph-name="a" unicode="a" 
d="M60 144v33c0 93 61 144 161 144h189v89c0 27 -9 44 -35 44h-261v77h225c100 0 171 -51 171 -144v-387h-100v61c-24 -59 -80 -61 -158 -61h-31c-100 0 -161 51 -161 144zM161 131c0 -39 11 -54 45 -54h164c28 0 37 10 40 35v132h-209c-30 -2 -40 -17 -40 -54v-59z" />
    <glyph glyph-name="aacute" unicode="&#xe1;" 
d="M60 144v33c0 93 61 144 161 144h189v89c0 27 -9 44 -35 44h-261v77h225c100 0 171 -51 171 -144v-387h-100v61c-24 -59 -80 -61 -158 -61h-31c-100 0 -161 51 -161 144zM161 131c0 -39 11 -54 45 -54h164c28 0 37 10 40 35v132h-209c-30 -2 -40 -17 -40 -54v-59zM417 663
l-228 -72l-18 48l209 99z" />
    <glyph glyph-name="abreve" unicode="&#x103;" 
d="M60 144v33c0 93 61 144 161 144h189v89c0 27 -9 44 -35 44h-261v77h225c100 0 171 -51 171 -144v-387h-100v61c-24 -59 -80 -61 -158 -61h-31c-100 0 -161 51 -161 144zM161 131c0 -39 11 -54 45 -54h164c28 0 37 10 40 35v132h-209c-30 -2 -40 -17 -40 -54v-59zM300 591
h-31c-93 3 -162 45 -162 122h85c0 -20 16 -66 93 -66s93 46 93 66h85c0 -77 -70 -119 -163 -122z" />
    <glyph glyph-name="acircumflex" unicode="&#xe2;" 
d="M60 144v33c0 93 61 144 161 144h189v89c0 27 -9 44 -35 44h-261v77h225c100 0 171 -51 171 -144v-387h-100v61c-24 -59 -80 -61 -158 -61h-31c-100 0 -161 51 -161 144zM161 131c0 -39 11 -54 45 -54h164c28 0 37 10 40 35v132h-209c-30 -2 -40 -17 -40 -54v-59zM285 695
l-120 -104h-75l145 150h100l145 -150h-75z" />
    <glyph glyph-name="acute" unicode="&#xb4;" horiz-adv-x="386" 
d="M316 651l-228 -72l-18 48l209 99z" />
    <glyph glyph-name="adieresis" unicode="&#xe4;" 
d="M60 144v33c0 93 61 144 161 144h189v89c0 27 -9 44 -35 44h-261v77h225c100 0 171 -51 171 -144v-387h-100v61c-24 -59 -80 -61 -158 -61h-31c-100 0 -161 51 -161 144zM161 131c0 -39 11 -54 45 -54h164c28 0 37 10 40 35v132h-209c-30 -2 -40 -17 -40 -54v-59zM139 591
v111h121v-111h-121zM310 591v111h121v-111h-121z" />
    <glyph glyph-name="ae" unicode="&#xe6;" horiz-adv-x="939" 
d="M100 531h244c78 0 111 -21 119 -43c8 22 42 43 122 43h118c100 0 171 -51 171 -144v-159h-364v-107c0 -39 21 -44 55 -44h309v-77h-309c-52 0 -90 22 -108 35c-27 -23 -35 -35 -113 -35h-113c-100 0 -171 51 -171 144v43c0 93 71 128 171 128h178v95c0 39 -41 44 -75 44
h-234v77zM196 238c-34 0 -35 -11 -35 -34v-83c0 -21 1 -44 35 -44h138c34 0 75 5 75 44v117h-213zM738 454h-185c-34 0 -43 -23 -43 -44v-105h263v105c0 21 -9 44 -35 44z" />
    <glyph glyph-name="aeacute" unicode="&#x1fd;" horiz-adv-x="939" 
d="M100 531h244c78 0 111 -21 119 -43c8 22 42 43 122 43h118c100 0 171 -51 171 -144v-159h-364v-107c0 -39 21 -44 55 -44h309v-77h-309c-52 0 -90 22 -108 35c-27 -23 -35 -35 -113 -35h-113c-100 0 -171 51 -171 144v43c0 93 71 128 171 128h178v95c0 39 -41 44 -75 44
h-234v77zM196 238c-34 0 -35 -11 -35 -34v-83c0 -21 1 -44 35 -44h138c34 0 75 5 75 44v117h-213zM738 454h-185c-34 0 -43 -23 -43 -44v-105h263v105c0 21 -9 44 -35 44zM592 651l-228 -72l-18 48l209 99z" />
    <glyph glyph-name="agrave" unicode="&#xe0;" 
d="M60 144v33c0 93 61 144 161 144h189v89c0 27 -9 44 -35 44h-261v77h225c100 0 171 -51 171 -144v-387h-100v61c-24 -59 -80 -61 -158 -61h-31c-100 0 -161 51 -161 144zM161 131c0 -39 11 -54 45 -54h164c28 0 37 10 40 35v132h-209c-30 -2 -40 -17 -40 -54v-59zM374 591
l-228 72l37 75l209 -99z" />
    <glyph glyph-name="amacron" unicode="&#x101;" 
d="M60 144v33c0 93 61 144 161 144h189v89c0 27 -9 44 -35 44h-261v77h225c100 0 171 -51 171 -144v-387h-100v61c-24 -59 -80 -61 -158 -61h-31c-100 0 -161 51 -161 144zM161 131c0 -39 11 -54 45 -54h164c28 0 37 10 40 35v132h-209c-30 -2 -40 -17 -40 -54v-59zM111 591
v80h348v-80h-348z" />
    <glyph glyph-name="ampersand" unicode="&#x26;" horiz-adv-x="672" 
d="M365 0h-106c-144 0 -189 54 -189 140v74c0 63 30 109 118 124c-48 6 -91 45 -91 86v97c0 86 43 140 187 140h77c144 0 187 -54 187 -140v-53h-109v62c0 38 -13 46 -53 46h-129c-38 0 -58 -9 -58 -38v-120c0 -30 20 -39 58 -39h345v-94h-50v-145c0 -86 -43 -140 -187 -140
zM410 85c34 1 45 11 45 46v154h-225c-40 0 -53 -8 -53 -43v-114c0 -35 13 -43 53 -43h180z" />
    <glyph glyph-name="aogonek" unicode="&#x105;" 
d="M436 -80c-8 -41 13 -71 52 -71h15v-46h-28c-73 0 -116 48 -103 112c9 43 42 65 77 85h-39v61c-24 -59 -80 -61 -158 -61h-31c-100 0 -161 51 -161 144v33c0 93 61 144 161 144h189v89c0 27 -9 44 -35 44h-261v77h225c100 0 171 -51 171 -144v-387
c-45 -27 -69 -55 -74 -80zM161 131c0 -39 11 -54 45 -54h164c28 0 37 10 40 35v132h-209c-30 -2 -40 -17 -40 -54v-59z" />
    <glyph glyph-name="approxequal" unicode="&#x2248;" horiz-adv-x="579" 
d="M386 328c-88 0 -154 64 -204 64c-47 0 -69 -15 -89 -52l-43 24c40 82 91 100 146 100c87 0 150 -65 202 -65c47 0 68 16 88 53l43 -25c-40 -82 -90 -99 -143 -99zM386 181c-88 0 -154 64 -204 64c-47 0 -69 -15 -89 -52l-43 24c40 82 91 100 146 100
c87 0 150 -65 202 -65c47 0 68 16 88 53l43 -25c-40 -82 -90 -99 -143 -99z" />
    <glyph glyph-name="aring" unicode="&#xe5;" 
d="M60 144v33c0 93 61 144 161 144h189v89c0 27 -9 44 -35 44h-261v77h225c100 0 171 -51 171 -144v-387h-100v61c-24 -59 -80 -61 -158 -61h-31c-100 0 -161 51 -161 144zM161 131c0 -39 11 -54 45 -54h164c28 0 37 10 40 35v132h-209c-30 -2 -40 -17 -40 -54v-59zM285 755
c62 0 96 -27 96 -82s-34 -82 -96 -82s-96 27 -96 82s34 82 96 82zM285 640c23 0 37 13 37 33c0 21 -11 33 -37 33s-37 -12 -37 -33c0 -20 14 -33 37 -33z" />
    <glyph glyph-name="aringacute" unicode="&#x1fb;" 
d="M60 144v33c0 93 61 144 161 144h189v89c0 27 -9 44 -35 44h-261v77h225c100 0 171 -51 171 -144v-387h-100v61c-24 -59 -80 -61 -158 -61h-31c-100 0 -161 51 -161 144zM161 131c0 -39 11 -54 45 -54h164c28 0 37 10 40 35v132h-209c-30 -2 -40 -17 -40 -54v-59zM285 735
c62 0 96 -27 96 -82s-34 -82 -96 -82s-96 27 -96 82s34 82 96 82zM285 620c23 0 37 13 37 33c0 21 -11 33 -37 33s-37 -12 -37 -33c0 -20 14 -33 37 -33zM417 823l-228 -72l-18 48l209 99z" />
    <glyph glyph-name="asciicircum" unicode="^" horiz-adv-x="630" 
d="M315 595l-150 -192h-105l205 258h100l205 -258h-105z" />
    <glyph glyph-name="asciitilde" unicode="~" horiz-adv-x="579" 
d="M386 218c-88 0 -154 64 -204 64c-47 0 -69 -15 -89 -52l-43 24c40 82 91 100 146 100c87 0 150 -65 202 -65c47 0 68 16 88 53l43 -25c-40 -82 -90 -99 -143 -99z" />
    <glyph glyph-name="asterisk" unicode="*" horiz-adv-x="569" 
d="M107 635l141 -125v191h73v-191l141 125l47 -52l-159 -127l159 -127l-47 -52l-141 124v-190h-73v190l-141 -124l-47 52l159 127l-159 127z" />
    <glyph glyph-name="at" unicode="@" horiz-adv-x="788" 
d="M552 427l-30 -172c-3 -15 0 -31 14 -31h64c13 0 21 14 21 31v257c0 45 -13 63 -53 63h-348c-40 0 -53 -28 -53 -73v-355c0 -45 13 -63 53 -63h508v-84h-479c-117 0 -189 60 -189 170v321c0 110 72 170 189 170h290c117 0 189 -60 189 -170v-169
c0 -110 -51 -172 -148 -172h-72c-41 0 -61 25 -57 62c-25 -59 -41 -62 -89 -62h-64c-47 0 -90 31 -78 102l30 180c6 35 34 79 80 79h144c55 0 89 -31 78 -84zM436 252l35 148c6 37 -1 52 -31 54h-58c-30 -2 -43 -17 -49 -54l-25 -129c-7 -39 2 -54 36 -54h46
c28 0 38 10 46 35z" />
    <glyph glyph-name="atilde" unicode="&#xe3;" 
d="M60 144v33c0 93 61 144 161 144h189v89c0 27 -9 44 -35 44h-261v77h225c100 0 171 -51 171 -144v-387h-100v61c-24 -59 -80 -61 -158 -61h-31c-100 0 -161 51 -161 144zM161 131c0 -39 11 -54 45 -54h164c28 0 37 10 40 35v132h-209c-30 -2 -40 -17 -40 -54v-59zM377 591
c-88 0 -135 64 -185 64c-37 0 -53 -19 -69 -52l-43 24c30 72 66 100 116 100c87 0 131 -65 183 -65c37 0 52 20 68 53l43 -25c-30 -72 -65 -99 -113 -99z" />
    <glyph glyph-name="b" unicode="b" 
d="M80 0v731h100v-261c24 59 80 61 158 61h31c100 0 161 -51 161 -144v-243c0 -93 -61 -144 -161 -144h-31c-78 0 -134 2 -158 61v-61h-100zM181 400v-288c3 -25 12 -35 40 -35h163c34 0 45 15 45 54v269c0 37 -10 52 -40 54h-168c-30 -2 -40 -17 -40 -54z" />
    <glyph glyph-name="backslash" unicode="\" horiz-adv-x="611" 
d="M141 731l430 -911h-101l-430 911h101z" />
    <glyph glyph-name="bar" unicode="|" horiz-adv-x="301" 
d="M100 -230v1011h101v-1011h-101z" />
    <glyph glyph-name="braceleft" unicode="{" horiz-adv-x="414" 
d="M86 225h-26v100h26c66 0 82 99 82 187c4 147 23 219 121 219h55v-77h-42c-41 0 -42 -96 -42 -207c0 -92 -57 -170 -115 -172c58 -2 115 -81 115 -172c0 -111 1 -207 42 -207h42v-77h-55c-98 0 -117 72 -121 219c0 88 -16 187 -82 187z" />
    <glyph glyph-name="braceright" unicode="}" horiz-adv-x="414" 
d="M354 225h-26c-66 0 -82 -99 -82 -187c-4 -147 -23 -219 -121 -219h-55v77h42c41 0 42 96 42 207c0 91 57 170 115 172c-58 2 -115 80 -115 172c0 111 -1 207 -42 207h-42v77h55c98 0 117 -72 121 -219c0 -88 16 -187 82 -187h26v-100z" />
    <glyph glyph-name="bracketleft" unicode="[" horiz-adv-x="325" 
d="M80 -180v911h195v-77h-94v-757h94v-77h-195z" />
    <glyph glyph-name="bracketright" unicode="]" horiz-adv-x="365" 
d="M285 731v-911h-235v77h134v757h-134v77h235z" />
    <glyph glyph-name="breve" unicode="&#x2d8;" horiz-adv-x="486" 
d="M258 609h-31c-93 3 -162 45 -162 122h85c0 -20 16 -66 93 -66s93 46 93 66h85c0 -77 -70 -119 -163 -122z" />
    <glyph glyph-name="brokenbar" unicode="&#xa6;" horiz-adv-x="301" 
d="M100 320v461h101v-461h-101zM100 -230v481h101v-481h-101z" />
    <glyph glyph-name="bullet" unicode="&#x2022;" horiz-adv-x="297" 
d="M80 345c0 38 30 69 68 69s69 -31 69 -69s-31 -68 -69 -68s-68 30 -68 68z" />
    <glyph glyph-name="c" unicode="c" horiz-adv-x="500" 
d="M161 131c0 -39 11 -54 45 -54h254v-77h-239c-100 0 -161 51 -161 144v243c0 93 61 144 161 144h239v-77h-254c-34 0 -45 -15 -45 -54v-269z" />
    <glyph glyph-name="cacute" unicode="&#x107;" horiz-adv-x="510" 
d="M161 131c0 -39 11 -54 45 -54h254v-77h-239c-100 0 -161 51 -161 144v243c0 93 61 144 161 144h239v-77h-254c-34 0 -45 -15 -45 -54v-269zM397 663l-228 -72l-18 48l209 99z" />
    <glyph glyph-name="caron" unicode="&#x2c7;" horiz-adv-x="520" 
d="M140 731l120 -104l120 104h75l-145 -150h-100l-145 150h75z" />
    <glyph glyph-name="ccaron" unicode="&#x10d;" horiz-adv-x="510" 
d="M161 131c0 -39 11 -54 45 -54h254v-77h-239c-100 0 -161 51 -161 144v243c0 93 61 144 161 144h239v-77h-254c-34 0 -45 -15 -45 -54v-269zM145 741l120 -104l120 104h75l-145 -150h-100l-145 150h75z" />
    <glyph glyph-name="ccedilla" unicode="&#xe7;" horiz-adv-x="510" 
d="M320 -107c4 21 -6 40 -32 40h-60l12 67h-19c-100 0 -161 51 -161 144v243c0 93 61 144 161 144h239v-77h-254c-34 0 -45 -15 -45 -54v-269c0 -39 11 -54 45 -54h254v-77h-160l-4 -29c66 0 103 -15 98 -78c-6 -72 -56 -90 -111 -90h-72l11 46h52c31 0 42 23 46 44z" />
    <glyph glyph-name="ccircumflex" unicode="&#x109;" horiz-adv-x="510" 
d="M161 131c0 -39 11 -54 45 -54h254v-77h-239c-100 0 -161 51 -161 144v243c0 93 61 144 161 144h239v-77h-254c-34 0 -45 -15 -45 -54v-269zM265 695l-120 -104h-75l145 150h100l145 -150h-75z" />
    <glyph glyph-name="cdotaccent" unicode="&#x10b;" horiz-adv-x="510" 
d="M161 131c0 -39 11 -54 45 -54h254v-77h-239c-100 0 -161 51 -161 144v243c0 93 61 144 161 144h239v-77h-254c-34 0 -45 -15 -45 -54v-269zM205 591v111h121v-111h-121z" />
    <glyph glyph-name="cedilla" unicode="&#xb8;" horiz-adv-x="264" 
d="M149 -107c4 21 -6 40 -32 40h-60l12 67h60l-4 -29c66 0 103 -15 98 -78c-6 -72 -56 -90 -111 -90h-72l11 46h52c31 0 42 23 46 44z" />
    <glyph glyph-name="cent" unicode="&#xa2;" horiz-adv-x="510" 
d="M256 641h101v-110h113v-77h-264c-34 0 -45 -15 -45 -54v-269c0 -39 11 -54 45 -54h264v-77h-113v-110h-101v110h-35c-100 0 -161 51 -161 144v243c0 93 61 144 161 144h35v110z" />
    <glyph glyph-name="circumflex" unicode="&#x2c6;" horiz-adv-x="490" 
d="M245 685l-120 -104h-75l145 150h100l145 -150h-75z" />
    <glyph glyph-name="colon" unicode=":" horiz-adv-x="271" 
d="M50 0v111h121v-111h-121zM50 371v111h121v-111h-121z" />
    <glyph glyph-name="comma" unicode="," horiz-adv-x="236" 
d="M65 0v111h121v-111l-110 -129h-61z" />
    <glyph glyph-name="commaaccent" horiz-adv-x="241" 
d="M80 -111v81h121v-81l-110 -109h-61z" />
    <glyph glyph-name="copyright" unicode="&#xa9;" horiz-adv-x="743" 
d="M318 271c0 -39 11 -54 45 -54h140v-67h-135c-100 0 -141 31 -141 124v113c0 93 41 124 141 124h135v-67h-140c-34 0 -45 -15 -45 -54v-119zM683 491v-321c0 -110 -72 -170 -189 -170h-245c-117 0 -189 60 -189 170v321c0 110 72 170 189 170h245c117 0 189 -60 189 -170z
M167 148c0 -45 13 -63 53 -63h303c40 0 53 18 53 63v365c0 45 -13 63 -53 63h-303c-40 0 -53 -18 -53 -63v-365z" />
    <glyph glyph-name="currency" unicode="&#xa4;" horiz-adv-x="583" 
d="M120 324c0 32 8 62 24 87l-84 75l47 47l81 -73c28 22 64 35 103 35s74 -13 103 -35l82 73l47 -47l-85 -76c15 -25 24 -55 24 -86c0 -32 -9 -61 -24 -87l85 -75l-47 -47l-82 73c-29 -22 -64 -35 -103 -35s-75 13 -103 34l-81 -72l-47 47l84 74c-16 26 -24 56 -24 88z
M179 324c0 -61 51 -112 112 -112s111 51 111 112s-50 111 -111 111s-112 -50 -112 -111z" />
    <glyph glyph-name="d" unicode="d" 
d="M510 731v-731h-100v61c-24 -59 -80 -61 -158 -61h-31c-100 0 -161 51 -161 144v243c0 93 61 144 161 144h31c78 0 134 -2 158 -61v261h100zM409 112v288c0 37 -10 52 -40 54h-168c-30 -2 -40 -17 -40 -54v-269c0 -39 11 -54 45 -54h163c28 0 37 10 40 35z" />
    <glyph glyph-name="dagger" unicode="&#x2020;" horiz-adv-x="451" 
d="M40 388v82h135v191h101v-191h135v-82h-135v-568h-101v568h-135z" />
    <glyph glyph-name="daggerdbl" unicode="&#x2021;" horiz-adv-x="451" 
d="M40 388v82h135v191h101v-191h135v-82h-135v-138h135v-82h-135v-348h-101v348h-135v82h135v138h-135z" />
    <glyph glyph-name="dcaron" unicode="&#x10f;" horiz-adv-x="861" 
d="M510 731v-731h-100v61c-24 -59 -80 -61 -158 -61h-31c-100 0 -161 51 -161 144v243c0 93 61 144 161 144h31c78 0 134 -2 158 -61v261h100zM409 112v288c0 37 -10 52 -40 54h-168c-30 -2 -40 -17 -40 -54v-269c0 -39 11 -54 45 -54h163c28 0 37 10 40 35zM690 571v111
h121v-111l-110 -129h-61z" />
    <glyph glyph-name="degree" unicode="&#xb0;" horiz-adv-x="387" 
d="M50 518c0 79 57 143 143 143s144 -64 144 -143s-58 -142 -144 -142s-143 63 -143 142zM112 518c0 -46 27 -84 81 -84s81 38 81 84c0 45 -28 85 -81 85s-81 -40 -81 -85z" />
    <glyph glyph-name="dieresis" unicode="&#xa8;" horiz-adv-x="412" 
d="M60 620v111h121v-111h-121zM231 620v111h121v-111h-121z" />
    <glyph glyph-name="divide" unicode="&#xf7;" horiz-adv-x="547" 
d="M219 103v111h121v-111h-121zM219 404v111h121v-111h-121zM50 267v85h447v-85h-447z" />
    <glyph glyph-name="dollar" unicode="$" horiz-adv-x="593" 
d="M237 -110v110h-167v85h303c40 0 53 8 53 33v130c0 25 -33 33 -73 33h-124c-117 0 -169 60 -169 170v40c0 110 52 170 169 170h8v70h101v-70h175v-85h-293c-40 0 -53 -8 -53 -33v-136c0 -25 33 -33 73 -33h124c117 0 169 -60 169 -170v-34c0 -110 -72 -170 -189 -170h-6
v-110h-101z" />
    <glyph glyph-name="dotaccent" unicode="&#x2d9;" horiz-adv-x="221" 
d="M50 620v111h121v-111h-121z" />
    <glyph glyph-name="dotlessi" unicode="&#x131;" horiz-adv-x="261" 
d="M80 0v531h101v-531h-101z" />
    <glyph glyph-name="e" unicode="e" horiz-adv-x="585" 
d="M525 228h-364v-107c0 -27 9 -44 35 -44h329v-77h-294c-100 0 -171 51 -171 144v243c0 93 71 144 171 144h123c100 0 171 -51 171 -144v-159zM424 305v105c0 21 -9 44 -35 44h-193c-26 0 -35 -23 -35 -44v-105h263z" />
    <glyph glyph-name="eacute" unicode="&#xe9;" horiz-adv-x="585" 
d="M525 228h-364v-107c0 -27 9 -44 35 -44h329v-77h-294c-100 0 -171 51 -171 144v243c0 93 71 144 171 144h123c100 0 171 -51 171 -144v-159zM424 305v105c0 21 -9 44 -35 44h-193c-26 0 -35 -23 -35 -44v-105h263zM424 663l-228 -72l-18 48l209 99z" />
    <glyph glyph-name="ebreve" unicode="&#x115;" horiz-adv-x="585" 
d="M525 228h-364v-107c0 -27 9 -44 35 -44h329v-77h-294c-100 0 -171 51 -171 144v243c0 93 71 144 171 144h123c100 0 171 -51 171 -144v-159zM424 305v105c0 21 -9 44 -35 44h-193c-26 0 -35 -23 -35 -44v-105h263zM307 591h-31c-93 3 -162 45 -162 122h85
c0 -20 16 -66 93 -66s93 46 93 66h85c0 -77 -70 -119 -163 -122z" />
    <glyph glyph-name="ecaron" unicode="&#x11b;" horiz-adv-x="585" 
d="M525 228h-364v-107c0 -27 9 -44 35 -44h329v-77h-294c-100 0 -171 51 -171 144v243c0 93 71 144 171 144h123c100 0 171 -51 171 -144v-159zM424 305v105c0 21 -9 44 -35 44h-193c-26 0 -35 -23 -35 -44v-105h263zM172 741l120 -104l120 104h75l-145 -150h-100l-145 150
h75z" />
    <glyph glyph-name="ecircumflex" unicode="&#xea;" horiz-adv-x="585" 
d="M525 228h-364v-107c0 -27 9 -44 35 -44h329v-77h-294c-100 0 -171 51 -171 144v243c0 93 71 144 171 144h123c100 0 171 -51 171 -144v-159zM424 305v105c0 21 -9 44 -35 44h-193c-26 0 -35 -23 -35 -44v-105h263zM292 695l-120 -104h-75l145 150h100l145 -150h-75z" />
    <glyph glyph-name="edieresis" unicode="&#xeb;" horiz-adv-x="585" 
d="M525 228h-364v-107c0 -27 9 -44 35 -44h329v-77h-294c-100 0 -171 51 -171 144v243c0 93 71 144 171 144h123c100 0 171 -51 171 -144v-159zM424 305v105c0 21 -9 44 -35 44h-193c-26 0 -35 -23 -35 -44v-105h263zM146 591v111h121v-111h-121zM317 591v111h121v-111h-121
z" />
    <glyph glyph-name="edotaccent" unicode="&#x117;" horiz-adv-x="585" 
d="M525 228h-364v-107c0 -27 9 -44 35 -44h329v-77h-294c-100 0 -171 51 -171 144v243c0 93 71 144 171 144h123c100 0 171 -51 171 -144v-159zM424 305v105c0 21 -9 44 -35 44h-193c-26 0 -35 -23 -35 -44v-105h263zM232 591v111h121v-111h-121z" />
    <glyph glyph-name="egrave" unicode="&#xe8;" horiz-adv-x="585" 
d="M525 228h-364v-107c0 -27 9 -44 35 -44h329v-77h-294c-100 0 -171 51 -171 144v243c0 93 71 144 171 144h123c100 0 171 -51 171 -144v-159zM424 305v105c0 21 -9 44 -35 44h-193c-26 0 -35 -23 -35 -44v-105h263zM381 591l-228 72l37 75l209 -99z" />
    <glyph glyph-name="eight" unicode="8" horiz-adv-x="631" 
d="M372 0h-113c-144 0 -189 54 -189 140v82c0 78 53 116 106 119c-53 -3 -104 45 -104 120v60c0 86 43 140 187 140h113c144 0 187 -54 187 -140v-60c0 -75 -51 -123 -104 -120c53 -3 106 -41 106 -119v-82c0 -86 -45 -140 -189 -140zM401 289h-171c-40 0 -53 -8 -53 -43
v-118c0 -35 13 -43 53 -43h171c40 0 53 8 53 43v118c0 35 -13 43 -53 43zM397 576h-163c-40 0 -53 -8 -53 -43v-116c0 -35 13 -43 53 -43h163c40 0 53 8 53 43v116c0 35 -13 43 -53 43z" />
    <glyph glyph-name="eight_dnom" horiz-adv-x="324" 
d="M137 325h50c70 0 91 -31 91 -79v-22c0 -36 -23 -56 -47 -56c24 -4 53 -20 53 -55v-34c0 -48 -23 -79 -93 -79h-58c-70 0 -93 31 -93 79v34c0 35 27 51 53 55c-24 0 -47 20 -47 56v22c0 48 21 79 91 79zM186 139h-48c-16 0 -25 -8 -25 -20v-35c0 -17 6 -31 26 -31h46
c20 0 26 14 26 31v35c0 12 -9 20 -25 20zM180 272h-36c-20 0 -26 -4 -26 -21v-35c0 -21 8 -30 25 -30h38c17 0 25 9 25 30v35c0 17 -6 21 -26 21z" />
    <glyph glyph-name="eight_numr" horiz-adv-x="324" 
d="M137 661h50c70 0 91 -31 91 -79v-22c0 -36 -23 -56 -47 -56c24 -4 53 -20 53 -55v-34c0 -48 -23 -79 -93 -79h-58c-70 0 -93 31 -93 79v34c0 35 27 51 53 55c-24 0 -47 20 -47 56v22c0 48 21 79 91 79zM186 475h-48c-16 0 -25 -8 -25 -20v-35c0 -17 6 -31 26 -31h46
c20 0 26 14 26 31v35c0 12 -9 20 -25 20zM180 608h-36c-20 0 -26 -4 -26 -21v-35c0 -21 8 -30 25 -30h38c17 0 25 9 25 30v35c0 17 -6 21 -26 21z" />
    <glyph glyph-name="eight_old" horiz-adv-x="631" 
d="M372 0h-113c-144 0 -189 54 -189 140v82c0 78 53 116 106 119c-53 -3 -104 45 -104 120v60c0 86 43 140 187 140h113c144 0 187 -54 187 -140v-60c0 -75 -51 -123 -104 -120c53 -3 106 -41 106 -119v-82c0 -86 -45 -140 -189 -140zM401 289h-171c-40 0 -53 -8 -53 -43
v-118c0 -35 13 -43 53 -43h171c40 0 53 8 53 43v118c0 35 -13 43 -53 43zM397 576h-163c-40 0 -53 -8 -53 -43v-116c0 -35 13 -43 53 -43h163c40 0 53 8 53 43v116c0 35 -13 43 -53 43z" />
    <glyph glyph-name="ellipsis" unicode="&#x2026;" horiz-adv-x="623" 
d="M50 0v111h121v-111h-121zM251 0v111h121v-111h-121zM452 0v111h121v-111h-121z" />
    <glyph glyph-name="emacron" unicode="&#x113;" horiz-adv-x="585" 
d="M525 228h-364v-107c0 -27 9 -44 35 -44h329v-77h-294c-100 0 -171 51 -171 144v243c0 93 71 144 171 144h123c100 0 171 -51 171 -144v-159zM424 305v105c0 21 -9 44 -35 44h-193c-26 0 -35 -23 -35 -44v-105h263zM118 591v80h348v-80h-348z" />
    <glyph glyph-name="emdash" unicode="&#x2014;" horiz-adv-x="993" 
d="M50 264v85h893v-85h-893z" />
    <glyph glyph-name="endash" unicode="&#x2013;" horiz-adv-x="667" 
d="M50 264v85h567v-85h-567z" />
    <glyph glyph-name="eng" unicode="&#x14b;" horiz-adv-x="610" 
d="M80 0v531h100v-61c24 59 80 61 158 61h31c100 0 161 -51 161 -144v-422c0 -90 -51 -145 -168 -145h-40v77h62c39 0 45 20 45 57v446c0 37 -10 52 -40 54h-168c-30 -2 -40 -17 -40 -54v-400h-101z" />
    <glyph glyph-name="eogonek" unicode="&#x119;" horiz-adv-x="585" 
d="M451 -80c-8 -41 13 -71 52 -71h15v-46h-28c-73 0 -116 48 -103 112c9 43 42 65 77 85h-233c-100 0 -171 51 -171 144v243c0 93 71 144 171 144h123c100 0 171 -51 171 -144v-159h-364v-107c0 -27 9 -44 35 -44h329v-77c-45 -27 -69 -55 -74 -80zM424 305v105
c0 21 -9 44 -35 44h-193c-26 0 -35 -23 -35 -44v-105h263z" />
    <glyph glyph-name="equal" unicode="=" horiz-adv-x="547" 
d="M50 209v85h447v-85h-447zM50 347v85h447v-85h-447z" />
    <glyph glyph-name="eth" unicode="&#xf0;" horiz-adv-x="599" 
d="M250 561l-18 48l81 25c-29 34 -63 67 -97 97h109s31 -28 67 -72l109 34l18 -48l-94 -30c38 -56 74 -128 74 -204v-267c0 -93 -80 -144 -173 -144h-105c-100 0 -161 51 -161 144v243c0 93 61 144 161 144h57c78 0 97 -19 121 -58h4c0 32 -22 74 -55 118zM150 131
c0 -39 11 -54 45 -54h169c34 0 45 15 45 54v269c0 39 -11 54 -45 54h-169c-34 0 -45 -15 -45 -54v-269z" />
    <glyph glyph-name="exclam" unicode="!" horiz-adv-x="221" 
d="M60 398l-10 333h121l-10 -333l-20 -158h-61zM50 0v111h121v-111h-121z" />
    <glyph glyph-name="exclamdown" unicode="&#xa1;" horiz-adv-x="221" 
d="M161 333l10 -333h-121l10 333l20 158h61zM171 731v-111h-121v111h121z" />
    <glyph glyph-name="f" unicode="f" horiz-adv-x="368" 
d="M40 531h80v55c0 90 51 145 168 145h40v-77h-62c-39 0 -45 -20 -45 -57v-66h97v-77h-97v-454h-101v454h-80v77z" />
    <glyph glyph-name="five" unicode="5" horiz-adv-x="631" 
d="M177 576v-179h225c90 0 159 -60 159 -170v-57c0 -110 -72 -170 -189 -170h-113c-117 0 -189 60 -189 170v13h107c0 -90 13 -98 53 -98h171c40 0 53 18 53 63v106c0 45 -13 63 -53 63h-331v344h476v-85h-369z" />
    <glyph glyph-name="five_dnom" horiz-adv-x="316" 
d="M112 268v-62h81c47 0 83 -31 83 -88v-30c0 -57 -37 -88 -98 -88h-40c-61 0 -98 31 -98 88v7h65c0 -29 7 -38 28 -38h43c21 0 28 9 28 33v32c0 23 -7 32 -28 32h-136v171h228v-57h-156z" />
    <glyph glyph-name="five_numr" horiz-adv-x="316" 
d="M112 604v-62h81c47 0 83 -31 83 -88v-30c0 -57 -37 -88 -98 -88h-40c-61 0 -98 31 -98 88v7h65c0 -29 7 -38 28 -38h43c21 0 28 9 28 33v32c0 23 -7 32 -28 32h-136v171h228v-57h-156z" />
    <glyph glyph-name="five_old" horiz-adv-x="631" 
d="M177 446v-179h225c90 0 159 -60 159 -170v-57c0 -110 -72 -170 -189 -170h-113c-117 0 -189 60 -189 170v13h107c0 -90 13 -98 53 -98h171c40 0 53 18 53 63v106c0 45 -13 63 -53 63h-331v344h476v-85h-369z" />
    <glyph glyph-name="florin" unicode="&#x192;" horiz-adv-x="576" 
d="M187 -48l80 502h-79v77h91l9 56c19 91 66 144 138 144h90v-77h-82c-34 0 -37 -16 -45 -54l-11 -69h108v-77h-120l-78 -489c-19 -91 -66 -144 -138 -144h-90v77h82c34 0 45 15 45 54z" />
    <glyph glyph-name="four" unicode="4" horiz-adv-x="631" 
d="M581 201v-85h-84v-116h-97v116h-360v78l353 467h104v-460h84zM158 201h242v333z" />
    <glyph glyph-name="four_dnom" horiz-adv-x="325" 
d="M285 116v-52h-34v-64h-68v64h-163v57l160 204h71v-209h34zM91 116h92v126z" />
    <glyph glyph-name="four_numr" horiz-adv-x="325" 
d="M285 452v-52h-34v-64h-68v64h-163v57l160 204h71v-209h34zM91 452h92v126z" />
    <glyph glyph-name="four_old" horiz-adv-x="631" 
d="M581 71v-85h-84v-116h-97v116h-360v78l353 467h104v-460h84zM158 71h242v333z" />
    <glyph glyph-name="fraction" unicode="&#x2044;" horiz-adv-x="271" 
d="M-100 0l390 661h81l-390 -661h-81z" />
    <glyph glyph-name="g" unicode="g" 
d="M410 -67v128c-24 -59 -80 -61 -158 -61h-31c-100 0 -161 51 -161 144v243c0 93 61 144 161 144h31c78 0 134 -2 158 -61v61h100v-547c0 -110 -69 -164 -178 -164h-244v77h276c34 0 46 -3 46 36zM409 112v288c0 37 -10 52 -40 54h-168c-30 -2 -40 -17 -40 -54v-269
c0 -39 11 -54 45 -54h163c28 0 37 10 40 35z" />
    <glyph glyph-name="gbreve" unicode="&#x11f;" 
d="M410 -67v128c-24 -59 -80 -61 -158 -61h-31c-100 0 -161 51 -161 144v243c0 93 61 144 161 144h31c78 0 134 -2 158 -61v61h100v-547c0 -110 -69 -164 -178 -164h-244v77h276c34 0 46 -3 46 36zM409 112v288c0 37 -10 52 -40 54h-168c-30 -2 -40 -17 -40 -54v-269
c0 -39 11 -54 45 -54h163c28 0 37 10 40 35zM300 591h-31c-93 3 -162 45 -162 122h85c0 -20 16 -66 93 -66s93 46 93 66h85c0 -77 -70 -119 -163 -122z" />
    <glyph glyph-name="gcircumflex" unicode="&#x11d;" 
d="M410 -67v128c-24 -59 -80 -61 -158 -61h-31c-100 0 -161 51 -161 144v243c0 93 61 144 161 144h31c78 0 134 -2 158 -61v61h100v-547c0 -110 -69 -164 -178 -164h-244v77h276c34 0 46 -3 46 36zM409 112v288c0 37 -10 52 -40 54h-168c-30 -2 -40 -17 -40 -54v-269
c0 -39 11 -54 45 -54h163c28 0 37 10 40 35zM285 695l-120 -104h-75l145 150h100l145 -150h-75z" />
    <glyph glyph-name="gcommaaccent" unicode="&#x123;" 
d="M341 682v-111h-121v111l110 129h61zM410 -67v128c-24 -59 -80 -61 -158 -61h-31c-100 0 -161 51 -161 144v243c0 93 61 144 161 144h31c78 0 134 -2 158 -61v61h100v-547c0 -110 -69 -164 -178 -164h-244v77h276c34 0 46 -3 46 36zM409 112v288c0 37 -10 52 -40 54h-168
c-30 -2 -40 -17 -40 -54v-269c0 -39 11 -54 45 -54h163c28 0 37 10 40 35z" />
    <glyph glyph-name="gdotaccent" unicode="&#x121;" 
d="M410 -67v128c-24 -59 -80 -61 -158 -61h-31c-100 0 -161 51 -161 144v243c0 93 61 144 161 144h31c78 0 134 -2 158 -61v61h100v-547c0 -110 -69 -164 -178 -164h-244v77h276c34 0 46 -3 46 36zM409 112v288c0 37 -10 52 -40 54h-168c-30 -2 -40 -17 -40 -54v-269
c0 -39 11 -54 45 -54h163c28 0 37 10 40 35zM225 591v111h121v-111h-121z" />
    <glyph glyph-name="germandbls" unicode="&#xdf;" horiz-adv-x="578" 
d="M181 596v-596h-101v587c0 93 69 144 168 144h130c90 0 150 -53 150 -134v-36c0 -49 -36 -92 -86 -91c50 -6 108 -23 108 -148v-132c0 -124 -45 -190 -189 -190h-123v78h142c40 0 63 47 63 93v178c0 56 -33 105 -73 105h-132v77h138c40 0 53 33 53 62s-13 61 -53 61h-150
c-34 0 -45 -19 -45 -58z" />
    <glyph glyph-name="grave" unicode="`" horiz-adv-x="386" 
d="M298 579l-228 72l37 75l209 -99z" />
    <glyph glyph-name="greater" unicode="&#x3e;" horiz-adv-x="476" 
d="M50 110l235 215l-235 215h138l228 -215l-228 -215h-138z" />
    <glyph glyph-name="greaterequal" unicode="&#x2265;" horiz-adv-x="497" 
d="M437 77v-77h-387v77h387zM70 114l239 204l-239 214h138l228 -214l-228 -204h-138z" />
    <glyph glyph-name="guillemotleft" unicode="&#xab;" horiz-adv-x="460" 
d="M239 490l-77 -195l77 -195h-58l-121 195l121 195h58zM400 490l-77 -195l77 -195h-58l-121 195l121 195h58z" />
    <glyph glyph-name="guillemotright" unicode="&#xbb;" horiz-adv-x="460" 
d="M137 295l-77 195h58l121 -195l-121 -195h-58zM298 295l-77 195h58l121 -195l-121 -195h-58z" />
    <glyph glyph-name="guilsinglleft" unicode="&#x2039;" horiz-adv-x="299" 
d="M239 490l-77 -195l77 -195h-58l-121 195l121 195h58z" />
    <glyph glyph-name="guilsinglright" unicode="&#x203a;" horiz-adv-x="299" 
d="M137 295l-77 195h58l121 -195l-121 -195h-58z" />
    <glyph glyph-name="h" unicode="h" 
d="M80 0v731h100v-261c24 59 80 61 158 61h31c100 0 161 -51 161 -144v-387h-101v400c0 37 -10 52 -40 54h-168c-30 -2 -40 -17 -40 -54v-400h-101z" />
    <glyph glyph-name="hbar" unicode="&#x127;" horiz-adv-x="591" 
d="M20 581v80h61v70h100v-70h132v-80h-132v-111c24 59 80 61 158 61h31c100 0 161 -51 161 -144v-387h-101v400c0 37 -10 52 -40 54h-168c-30 -2 -40 -17 -40 -54v-400h-101v581h-61z" />
    <glyph glyph-name="hcircumflex" unicode="&#x125;" 
d="M80 0v731h100v-261c24 59 80 61 158 61h31c100 0 161 -51 161 -144v-387h-101v400c0 37 -10 52 -40 54h-168c-30 -2 -40 -17 -40 -54v-400h-101zM134 835l-120 -104h-75l145 150h100l145 -150h-75z" />
    <glyph glyph-name="hungarumlaut" unicode="&#x2dd;" horiz-adv-x="463" 
d="M237 685l-147 -110l-40 40l127 126zM413 685l-147 -110l-40 40l127 126z" />
    <glyph glyph-name="hyphen" unicode="-" horiz-adv-x="481" 
d="M50 264v85h381v-85h-381z" />
    <glyph glyph-name="i" unicode="i" horiz-adv-x="281" 
d="M90 0v531h101v-531h-101zM80 620v111h121v-111h-121z" />
    <glyph glyph-name="iacute" unicode="&#xed;" horiz-adv-x="261" 
d="M80 0v531h101v-531h-101zM262 663l-228 -72l-18 48l209 99z" />
    <glyph glyph-name="ibreve" unicode="&#x12d;" horiz-adv-x="261" 
d="M80 0v531h101v-531h-101zM145 591h-31c-93 3 -162 45 -162 122h85c0 -20 16 -66 93 -66s93 46 93 66h85c0 -77 -70 -119 -163 -122z" />
    <glyph glyph-name="icircumflex" unicode="&#xee;" horiz-adv-x="261" 
d="M80 0v531h101v-531h-101zM130 695l-120 -104h-75l145 150h100l145 -150h-75z" />
    <glyph glyph-name="idieresis" unicode="&#xef;" horiz-adv-x="261" 
d="M80 0v531h101v-531h-101zM-16 591v111h121v-111h-121zM155 591v111h121v-111h-121z" />
    <glyph glyph-name="igrave" unicode="&#xec;" horiz-adv-x="261" 
d="M80 0v531h101v-531h-101zM219 591l-228 72l37 75l209 -99z" />
    <glyph glyph-name="imacron" unicode="&#x12b;" horiz-adv-x="261" 
d="M80 0v531h101v-531h-101zM-44 591v80h348v-80h-348z" />
    <glyph glyph-name="integral" unicode="&#x222b;" horiz-adv-x="435" 
d="M167 -49v656c0 93 39 124 128 124h70v-77h-52c-34 0 -45 -15 -45 -54v-656c0 -93 -39 -124 -128 -124h-70v77h52c34 0 45 15 45 54z" />
    <glyph glyph-name="iogonek" unicode="&#x12f;" horiz-adv-x="281" 
d="M90 0v531h101v-531c-45 -27 -69 -55 -74 -80c-8 -41 13 -71 52 -71h15v-46h-28c-73 0 -116 48 -103 112c9 43 42 65 77 85h-40zM80 620v111h121v-111h-121z" />
    <glyph glyph-name="itilde" unicode="&#x129;" horiz-adv-x="261" 
d="M80 0v531h101v-531h-101zM222 591c-88 0 -135 64 -185 64c-37 0 -53 -19 -69 -52l-43 24c30 72 66 100 116 100c87 0 131 -65 183 -65c37 0 52 20 68 53l43 -25c-30 -72 -65 -99 -113 -99z" />
    <glyph glyph-name="j" unicode="j" horiz-adv-x="271" 
d="M70 620v111h121v-111h-121zM80 -46v577h101v-566c0 -90 -51 -145 -168 -145h-40v77h62c39 0 45 20 45 57z" />
    <glyph glyph-name="jcircumflex" unicode="&#x135;" horiz-adv-x="271" 
d="M80 -46v577h101v-566c0 -90 -51 -145 -168 -145h-40v77h62c39 0 45 20 45 57zM132 685l-120 -104h-75l145 150h100l145 -150h-75z" />
    <glyph glyph-name="k" unicode="k" horiz-adv-x="589" 
d="M80 0v731h101v-420h64l173 220h113l-202 -246l210 -285h-116l-178 234h-64v-234h-101z" />
    <glyph glyph-name="kcommaaccent" unicode="&#x137;" horiz-adv-x="589" 
d="M80 0v731h101v-420h64l173 220h113l-202 -246l210 -285h-116l-178 234h-64v-234h-101zM259 -111v81h121v-81l-110 -109h-61z" />
    <glyph glyph-name="l" unicode="l" horiz-adv-x="261" 
d="M80 0v731h101v-731h-101z" />
    <glyph glyph-name="lacute" unicode="&#x13a;" horiz-adv-x="261" 
d="M80 0v731h101v-731h-101zM262 863l-228 -72l-18 48l209 99z" />
    <glyph glyph-name="lcaron" unicode="&#x13e;" horiz-adv-x="532" 
d="M80 0v731h101v-731h-101zM361 571v111h121v-111l-110 -129h-61z" />
    <glyph glyph-name="lcommaaccent" unicode="&#x13c;" horiz-adv-x="261" 
d="M80 0v731h101v-731h-101zM71 -111v81h121v-81l-110 -109h-61z" />
    <glyph glyph-name="ldot" unicode="&#x140;" horiz-adv-x="482" 
d="M80 0v731h101v-731h-101zM311 264v111h121v-111h-121z" />
    <glyph glyph-name="less" unicode="&#x3c;" horiz-adv-x="476" 
d="M191 325l235 -215h-138l-228 215l228 215h138z" />
    <glyph glyph-name="lessequal" unicode="&#x2264;" horiz-adv-x="497" 
d="M60 0v77h387v-77h-387zM188 318l239 -204h-138l-228 204l228 214h138z" />
    <glyph glyph-name="logicalnot" unicode="&#xac;" horiz-adv-x="562" 
d="M50 269v80h461l1 -226h-91v146h-371z" />
    <glyph glyph-name="longs" unicode="&#x17f;" horiz-adv-x="375" 
d="M137 -49v636c0 93 29 144 128 144h70v-77h-52c-34 0 -45 -15 -45 -54v-636c0 -93 -29 -144 -128 -144h-70v77h52c34 0 45 15 45 54z" />
    <glyph glyph-name="m" unicode="m" horiz-adv-x="893" 
d="M80 0v531h100v-61c24 59 80 61 158 61h7c72 0 125 -27 148 -77c24 68 93 77 171 77h8c100 0 161 -51 161 -144v-387h-101v400c0 37 -10 52 -40 54h-145c-30 -2 -40 -17 -40 -54v-400h-101v400c0 37 -10 52 -40 54h-145c-30 -2 -40 -17 -40 -54v-400h-101z" />
    <glyph glyph-name="macron" unicode="&#xaf;" horiz-adv-x="448" 
d="M50 651v80h348v-80h-348z" />
    <glyph glyph-name="minus" unicode="&#x2212;" horiz-adv-x="547" 
d="M50 267v85h447v-85h-447z" />
    <glyph glyph-name="mu" unicode="&#xb5;" 
d="M61 91l-1 90v350h101v-400c0 -39 11 -54 45 -54h158c34 0 45 15 45 54v400h101v-531h-100v60c-14 -39 -50 -60 -118 -60h-131v-180h-100v271z" />
    <glyph glyph-name="mu" unicode="&#x3bc;" 
d="M61 91l-1 90v350h101v-400c0 -39 11 -54 45 -54h158c34 0 45 15 45 54v400h101v-531h-100v60c-14 -39 -50 -60 -118 -60h-131v-180h-100v271z" />
    <glyph glyph-name="multiply" unicode="&#xd7;" horiz-adv-x="512" 
d="M111 117l-61 61l147 147l-147 147l57 58l147 -148l147 148l61 -61l-147 -147l147 -147l-57 -58l-148 147z" />
    <glyph glyph-name="n" unicode="n" 
d="M80 0v531h100v-61c24 59 80 61 158 61h31c100 0 161 -51 161 -144v-387h-101v400c0 37 -10 52 -40 54h-168c-30 -2 -40 -17 -40 -54v-400h-101z" />
    <glyph glyph-name="nacute" unicode="&#x144;" 
d="M80 0v531h100v-61c24 59 80 61 158 61h31c100 0 161 -51 161 -144v-387h-101v400c0 37 -10 52 -40 54h-168c-30 -2 -40 -17 -40 -54v-400h-101zM437 663l-228 -72l-18 48l209 99z" />
    <glyph glyph-name="ncaron" unicode="&#x148;" 
d="M80 0v531h100v-61c24 59 80 61 158 61h31c100 0 161 -51 161 -144v-387h-101v400c0 37 -10 52 -40 54h-168c-30 -2 -40 -17 -40 -54v-400h-101zM185 741l120 -104l120 104h75l-145 -150h-100l-145 150h75z" />
    <glyph glyph-name="ncommaaccent" unicode="&#x146;" 
d="M80 0v531h100v-61c24 59 80 61 158 61h31c100 0 161 -51 161 -144v-387h-101v400c0 37 -10 52 -40 54h-168c-30 -2 -40 -17 -40 -54v-400h-101zM259 -111v81h121v-81l-110 -109h-61z" />
    <glyph glyph-name="nine" unicode="9" horiz-adv-x="631" 
d="M454 148v107h-200c-117 0 -189 60 -189 170v66c0 110 72 170 189 170h118c117 0 189 -60 189 -170v-321c0 -110 -72 -170 -189 -170h-272v85h301c40 0 53 18 53 63zM454 513c0 45 -13 63 -53 63h-176c-40 0 -53 -18 -53 -63v-110c0 -45 13 -63 53 -63h229v173z" />
    <glyph glyph-name="nine_dnom" horiz-adv-x="306" 
d="M194 90v35h-66c-61 0 -98 31 -98 89v23c0 57 37 88 98 88h40c61 0 98 -31 98 -88v-149c0 -57 -37 -88 -98 -88h-120v57h119c21 0 27 9 27 33zM194 235c0 24 -6 33 -27 33h-38c-21 0 -27 -9 -27 -33v-20c0 -23 6 -33 27 -33h65v53z" />
    <glyph glyph-name="nine_numr" horiz-adv-x="306" 
d="M194 426v35h-66c-61 0 -98 31 -98 89v23c0 57 37 88 98 88h40c61 0 98 -31 98 -88v-149c0 -57 -37 -88 -98 -88h-120v57h119c21 0 27 9 27 33zM194 571c0 24 -6 33 -27 33h-38c-21 0 -27 -9 -27 -33v-20c0 -23 6 -33 27 -33h65v53z" />
    <glyph glyph-name="nine_old" horiz-adv-x="631" 
d="M454 18v107h-200c-117 0 -189 60 -189 170v66c0 110 72 170 189 170h118c117 0 189 -60 189 -170v-321c0 -110 -72 -170 -189 -170h-272v85h301c40 0 53 18 53 63zM454 383c0 45 -13 63 -53 63h-176c-40 0 -53 -18 -53 -63v-110c0 -45 13 -63 53 -63h229v173z" />
    <glyph glyph-name="notequal" unicode="&#x2260;" horiz-adv-x="547" 
d="M50 347v85h245l85 149h101l-85 -149h101v-85h-149l-30 -53h179v-85h-228l-118 -209h-101l118 209h-118v85h167l30 53h-197z" />
    <glyph glyph-name="ntilde" unicode="&#xf1;" 
d="M80 0v531h100v-61c24 59 80 61 158 61h31c100 0 161 -51 161 -144v-387h-101v400c0 37 -10 52 -40 54h-168c-30 -2 -40 -17 -40 -54v-400h-101zM397 591c-88 0 -135 64 -185 64c-37 0 -53 -19 -69 -52l-43 24c30 72 66 100 116 100c87 0 131 -65 183 -65
c37 0 52 20 68 53l43 -25c-30 -72 -65 -99 -113 -99z" />
    <glyph glyph-name="numbersign" unicode="#" horiz-adv-x="792" 
d="M115 392l35 80h137l62 189h91l-62 -189h130l62 189h91l-62 -189l143 1l-35 -80l-134 -1l-40 -123l144 1l-35 -80l-136 -1l-62 -189h-91l62 189h-130l-62 -189h-91l62 189h-144l35 80h135l41 123h-146zM352 392l-41 -123h130l41 123h-130z" />
    <glyph glyph-name="o" unicode="o" horiz-adv-x="588" 
d="M528 387v-243c0 -93 -61 -144 -160 -144h-148c-99 0 -160 51 -160 144v243c0 93 61 144 160 144h148c99 0 160 -51 160 -144zM161 131c0 -39 11 -54 45 -54h176c34 0 45 15 45 54v269c0 39 -11 54 -45 54h-176c-34 0 -45 -15 -45 -54v-269z" />
    <glyph glyph-name="oacute" unicode="&#xf3;" horiz-adv-x="588" 
d="M528 387v-243c0 -93 -61 -144 -160 -144h-148c-99 0 -160 51 -160 144v243c0 93 61 144 160 144h148c99 0 160 -51 160 -144zM161 131c0 -39 11 -54 45 -54h176c34 0 45 15 45 54v269c0 39 -11 54 -45 54h-176c-34 0 -45 -15 -45 -54v-269zM426 663l-228 -72l-18 48
l209 99z" />
    <glyph glyph-name="obreve" unicode="&#x14f;" horiz-adv-x="588" 
d="M528 387v-243c0 -93 -61 -144 -160 -144h-148c-99 0 -160 51 -160 144v243c0 93 61 144 160 144h148c99 0 160 -51 160 -144zM161 131c0 -39 11 -54 45 -54h176c34 0 45 15 45 54v269c0 39 -11 54 -45 54h-176c-34 0 -45 -15 -45 -54v-269zM309 591h-31
c-93 3 -162 45 -162 122h85c0 -20 16 -66 93 -66s93 46 93 66h85c0 -77 -70 -119 -163 -122z" />
    <glyph glyph-name="ocircumflex" unicode="&#xf4;" horiz-adv-x="588" 
d="M528 387v-243c0 -93 -61 -144 -160 -144h-148c-99 0 -160 51 -160 144v243c0 93 61 144 160 144h148c99 0 160 -51 160 -144zM161 131c0 -39 11 -54 45 -54h176c34 0 45 15 45 54v269c0 39 -11 54 -45 54h-176c-34 0 -45 -15 -45 -54v-269zM294 695l-120 -104h-75
l145 150h100l145 -150h-75z" />
    <glyph glyph-name="odieresis" unicode="&#xf6;" horiz-adv-x="588" 
d="M528 387v-243c0 -93 -61 -144 -160 -144h-148c-99 0 -160 51 -160 144v243c0 93 61 144 160 144h148c99 0 160 -51 160 -144zM161 131c0 -39 11 -54 45 -54h176c34 0 45 15 45 54v269c0 39 -11 54 -45 54h-176c-34 0 -45 -15 -45 -54v-269zM148 591v111h121v-111h-121z
M319 591v111h121v-111h-121z" />
    <glyph glyph-name="oe" unicode="&#x153;" horiz-adv-x="588" 
d="M892 228h-364v-107c0 -27 9 -44 35 -44h329v-77h-294c-47 0 -88 11 -118 33c-27 -22 -66 -33 -112 -33h-148c-99 0 -160 51 -160 144v243c0 93 61 144 160 144h148c46 0 85 -11 112 -33c30 21 71 33 118 33h123c100 0 171 -51 171 -144v-159zM161 131
c0 -39 11 -54 45 -54h176c34 0 45 15 45 54v269c0 39 -11 54 -45 54h-176c-34 0 -45 -15 -45 -54v-269zM791 305v105c0 21 -9 44 -35 44h-193c-26 0 -35 -23 -35 -44v-105h263z" />
    <glyph glyph-name="ogonek" unicode="&#x2db;" horiz-adv-x="241" 
d="M117 -80c-8 -41 13 -71 52 -71h15v-46h-28c-73 0 -116 48 -103 112c9 43 42 65 77 85h61c-45 -27 -69 -55 -74 -80z" />
    <glyph glyph-name="ograve" unicode="&#xf2;" horiz-adv-x="588" 
d="M528 387v-243c0 -93 -61 -144 -160 -144h-148c-99 0 -160 51 -160 144v243c0 93 61 144 160 144h148c99 0 160 -51 160 -144zM161 131c0 -39 11 -54 45 -54h176c34 0 45 15 45 54v269c0 39 -11 54 -45 54h-176c-34 0 -45 -15 -45 -54v-269zM383 591l-228 72l37 75
l209 -99z" />
    <glyph glyph-name="ohungarumlaut" unicode="&#x151;" horiz-adv-x="588" 
d="M528 387v-243c0 -93 -61 -144 -160 -144h-148c-99 0 -160 51 -160 144v243c0 93 61 144 160 144h148c99 0 160 -51 160 -144zM161 131c0 -39 11 -54 45 -54h176c34 0 45 15 45 54v269c0 39 -11 54 -45 54h-176c-34 0 -45 -15 -45 -54v-269zM300 701l-147 -110l-40 40
l127 126zM476 701l-147 -110l-40 40l127 126z" />
    <glyph glyph-name="omacron" unicode="&#x14d;" horiz-adv-x="588" 
d="M528 387v-243c0 -93 -61 -144 -160 -144h-148c-99 0 -160 51 -160 144v243c0 93 61 144 160 144h148c99 0 160 -51 160 -144zM161 131c0 -39 11 -54 45 -54h176c34 0 45 15 45 54v269c0 39 -11 54 -45 54h-176c-34 0 -45 -15 -45 -54v-269zM120 591v80h348v-80h-348z" />
    <glyph glyph-name="one" unicode="1" horiz-adv-x="400" 
d="M330 661v-661h-107v549l-134 -102l-49 71l186 143h104z" />
    <glyph glyph-name="one_dnom" horiz-adv-x="234" 
d="M40 218v57l91 50h63v-325h-73v260z" />
    <glyph glyph-name="one_numr" horiz-adv-x="234" 
d="M40 554v57l91 50h63v-325h-73v260z" />
    <glyph glyph-name="one_old" horiz-adv-x="400" 
d="M330 531v-531h-107v419l-134 -102l-49 71l186 143h104z" />
    <glyph glyph-name="one_tnum" horiz-adv-x="631" 
d="M561 -1h-491v78h192v484h-156v57l186 43h77v-584h192v-78z" />
    <glyph glyph-name="onehalf" unicode="&#xbd;" horiz-adv-x="664" 
d="M60 554v57l91 50h63v-325h-73v260zM82 0l390 661h81l-390 -661h-81zM542 203v44c0 17 -6 21 -26 21h-39c-20 0 -26 -4 -26 -23v-30h-73v41c0 42 21 69 92 69h52c71 0 92 -27 92 -69v-48c0 -26 -13 -47 -31 -59l-125 -92h156v-57h-234v39c0 23 15 41 31 52l116 91
c7 5 15 15 15 21z" />
    <glyph glyph-name="onequarter" unicode="&#xbc;" horiz-adv-x="664" 
d="M60 554v57l91 50h63v-325h-73v260zM107 0l390 661h81l-390 -661h-81zM614 116v-52h-34v-64h-68v64h-163v57l160 204h71v-209h34zM420 116h92v126z" />
    <glyph glyph-name="onesuperior" unicode="&#xb9;" horiz-adv-x="244" 
d="M40 581v100l71 50h93v-345h-103v234z" />
    <glyph glyph-name="ordfeminine" unicode="&#xaa;" horiz-adv-x="363" 
d="M303 731v-265h-65v35c-12 -29 -30 -35 -59 -35h-48c-50 0 -81 25 -81 72v121c0 47 31 72 81 72h48c29 0 47 -6 59 -35v35h65zM238 537v114c0 18 -5 26 -20 27h-79c-15 -1 -20 -9 -20 -27v-105c0 -19 5 -27 22 -27h77c14 0 18 5 20 18z" />
    <glyph glyph-name="ordmasculine" unicode="&#xba;" horiz-adv-x="353" 
d="M303 659v-121c0 -47 -31 -72 -80 -72h-93c-49 0 -80 25 -80 72v121c0 47 31 72 80 72h93c49 0 80 -25 80 -72zM120 546c0 -19 6 -27 23 -27h67c17 0 23 8 23 27v105c0 19 -6 27 -23 27h-67c-17 0 -23 -8 -23 -27v-105z" />
    <glyph glyph-name="otilde" unicode="&#xf5;" horiz-adv-x="588" 
d="M528 387v-243c0 -93 -61 -144 -160 -144h-148c-99 0 -160 51 -160 144v243c0 93 61 144 160 144h148c99 0 160 -51 160 -144zM161 131c0 -39 11 -54 45 -54h176c34 0 45 15 45 54v269c0 39 -11 54 -45 54h-176c-34 0 -45 -15 -45 -54v-269zM386 591
c-88 0 -135 64 -185 64c-37 0 -53 -19 -69 -52l-43 24c30 72 66 100 116 100c87 0 131 -65 183 -65c37 0 52 20 68 53l43 -25c-30 -72 -65 -99 -113 -99z" />
    <glyph glyph-name="p" unicode="p" 
d="M80 -180v711h100v-61c24 59 80 61 158 61h31c100 0 161 -51 161 -144v-243c0 -93 -61 -144 -161 -144h-31c-78 0 -134 2 -158 61v-241h-100zM181 400v-288c3 -25 12 -35 40 -35h163c34 0 45 15 45 54v269c0 37 -10 52 -40 54h-168c-30 -2 -40 -17 -40 -54z" />
    <glyph glyph-name="paragraph" unicode="&#xb6;" horiz-adv-x="578" 
d="M383 581v-661h-72v350h-72c-117 0 -199 60 -199 170v51c0 110 82 170 199 170h259v-741h-69v661h-46z" />
    <glyph glyph-name="parenleft" unicode="(" horiz-adv-x="356" 
d="M171 275c0 -299 38 -378 83 -378h42v-77h-45c-97 0 -168 111 -171 353v214c3 242 74 344 171 344h45v-77h-42c-45 0 -83 -80 -83 -379z" />
    <glyph glyph-name="parenright" unicode=")" horiz-adv-x="356" 
d="M185 275c0 299 -38 379 -83 379h-42v77h45c97 0 168 -102 171 -344v-214c-3 -242 -74 -353 -171 -353h-45v77h42c45 0 83 79 83 378z" />
    <glyph glyph-name="percent" unicode="%" horiz-adv-x="911" 
d="M235 0l360 731h101l-360 -731h-101zM851 250v-135c0 -74 -49 -115 -128 -115h-67c-79 0 -128 41 -128 115v135c0 74 49 115 128 115h67c79 0 128 -41 128 -115zM608 105c0 -31 9 -43 36 -43h91c27 0 36 12 36 43v155c0 31 -9 43 -36 43h-91c-27 0 -36 -12 -36 -43v-155z
M383 546v-135c0 -74 -49 -115 -128 -115h-67c-79 0 -128 41 -128 115v135c0 74 49 115 128 115h67c79 0 128 -41 128 -115zM140 401c0 -31 9 -43 36 -43h91c27 0 36 12 36 43v155c0 31 -9 43 -36 43h-91c-27 0 -36 -12 -36 -43v-155z" />
    <glyph glyph-name="period" unicode="." horiz-adv-x="221" 
d="M50 0v111h121v-111h-121z" />
    <glyph glyph-name="periodcentered" unicode="&#xb7;" horiz-adv-x="221" 
d="M50 264v111h121v-111h-121z" />
    <glyph glyph-name="perthousand" unicode="&#x2030;" horiz-adv-x="1290" 
d="M595 731h101l-360 -731h-101zM656 365h67c79 0 128 -41 128 -115v-135c0 -74 -49 -115 -128 -115h-67c-79 0 -128 41 -128 115v135c0 74 49 115 128 115zM608 105c0 -31 9 -43 36 -43h91c27 0 36 12 36 43v155c0 31 -9 43 -36 43h-91c-27 0 -36 -12 -36 -43v-155z
M188 661h67c79 0 128 -41 128 -115v-135c0 -74 -49 -115 -128 -115h-67c-79 0 -128 41 -128 115v135c0 74 49 115 128 115zM140 401c0 -31 9 -43 36 -43h91c27 0 36 12 36 43v155c0 31 -9 43 -36 43h-91c-27 0 -36 -12 -36 -43v-155zM1035 365h67c79 0 128 -41 128 -115
v-135c0 -74 -49 -115 -128 -115h-67c-79 0 -128 41 -128 115v135c0 74 49 115 128 115zM987 105c0 -31 9 -43 36 -43h91c27 0 36 12 36 43v155c0 31 -9 43 -36 43h-91c-27 0 -36 -12 -36 -43v-155z" />
    <glyph glyph-name="pi" unicode="&#x3c0;" horiz-adv-x="691" 
d="M247 0h-101v451h-86v80h571v-80h-88v-320c0 -39 21 -54 55 -54h32v-77h-40c-72 0 -148 21 -148 114v337h-195v-451z" />
    <glyph glyph-name="plus" unicode="+" horiz-adv-x="547" 
d="M50 267v85h178v178h90v-178h179v-85h-179v-178h-90v178h-178z" />
    <glyph glyph-name="plusminus" unicode="&#xb1;" horiz-adv-x="647" 
d="M80 354v85h178v179h107v-179h202v-85h-202v-194h-107v194h-178zM80 0v85h487v-85h-487z" />
    <glyph glyph-name="q" unicode="q" 
d="M510 531v-711h-100v241c-24 -59 -80 -61 -158 -61h-31c-100 0 -161 51 -161 144v243c0 93 61 144 161 144h31c78 0 134 -2 158 -61v61h100zM409 112v288c0 37 -10 52 -40 54h-168c-30 -2 -40 -17 -40 -54v-269c0 -39 11 -54 45 -54h163c28 0 37 10 40 35z" />
    <glyph glyph-name="question" unicode="?" horiz-adv-x="531" 
d="M374 437v104c0 35 -13 43 -53 43h-111c-40 0 -53 -8 -53 -46v-40h-107v43c0 62 47 120 137 120h152c97 0 142 -58 142 -120v-85c0 -53 -23 -86 -63 -107l-142 -80v-88h-107v110l173 103c16 9 32 30 32 43zM163 0v111h121v-111h-121z" />
    <glyph glyph-name="questiondown" unicode="&#xbf;" horiz-adv-x="531" 
d="M157 224v-104c0 -35 13 -43 53 -43h111c40 0 53 8 53 46v40h107v-43c0 -62 -47 -120 -137 -120h-152c-97 0 -142 58 -142 120v85c0 53 23 86 63 107l142 80v88h107v-110l-173 -103c-16 -9 -32 -30 -32 -43zM246 570v111h121v-111h-121z" />
    <glyph glyph-name="quotedbl" unicode="&#x22;" horiz-adv-x="342" 
d="M30 561v100h111v-100l-29 -129h-53zM201 561v100h111v-100l-29 -129h-53z" />
    <glyph glyph-name="quotedblbase" unicode="&#x201e;" horiz-adv-x="488" 
d="M100 0v111h121v-111l-110 -129h-61zM317 0v111h121v-111l-110 -129h-61z" />
    <glyph glyph-name="quotedblleft" unicode="&#x201c;" horiz-adv-x="458" 
d="M191 553v-111h-121v111l110 129h61zM378 553v-111h-121v111l110 129h61z" />
    <glyph glyph-name="quotedblright" unicode="&#x201d;" horiz-adv-x="458" 
d="M80 571v111h121v-111l-110 -129h-61zM267 571v111h121v-111l-110 -129h-61z" />
    <glyph glyph-name="quoteleft" unicode="&#x2018;" horiz-adv-x="311" 
d="M171 681v-111l50 -129h-61l-110 129v111h121z" />
    <glyph glyph-name="quoteright" unicode="&#x2019;" horiz-adv-x="271" 
d="M100 571v111h121v-111l-110 -129h-61z" />
    <glyph glyph-name="quotesinglbase" unicode="&#x201a;" horiz-adv-x="271" 
d="M100 0v111h121v-111l-110 -129h-61z" />
    <glyph glyph-name="quotesingle" unicode="'" horiz-adv-x="211" 
d="M50 561v100h111v-100l-29 -129h-53z" />
    <glyph glyph-name="r" unicode="r" horiz-adv-x="395" 
d="M181 400v-400h-101v531h100v-61c24 59 80 61 158 61h37v-77h-154c-30 -2 -40 -17 -40 -54z" />
    <glyph glyph-name="racute" unicode="&#x155;" horiz-adv-x="395" 
d="M181 400v-400h-101v531h100v-61c24 59 80 61 158 61h37v-77h-154c-30 -2 -40 -17 -40 -54zM359 663l-228 -72l-18 48l209 99z" />
    <glyph glyph-name="rcaron" unicode="&#x159;" horiz-adv-x="395" 
d="M181 400v-400h-101v531h100v-61c24 59 80 61 158 61h37v-77h-154c-30 -2 -40 -17 -40 -54zM107 741l120 -104l120 104h75l-145 -150h-100l-145 150h75z" />
    <glyph glyph-name="rcommaaccent" unicode="&#x157;" horiz-adv-x="395" 
d="M181 400v-400h-101v531h100v-61c24 59 80 61 158 61h37v-77h-154c-30 -2 -40 -17 -40 -54zM72 -111v81h121v-81l-110 -109h-61z" />
    <glyph glyph-name="registered" unicode="&#xae;" horiz-adv-x="783" 
d="M476 288l55 -139h-81l-46 134h-76v-134h-71v362h182c60 0 92 -23 92 -74v-85c0 -34 -21 -59 -55 -64zM328 454v-114h106c21 0 32 8 32 26v62c0 18 -11 26 -32 26h-106zM703 491v-321c0 -110 -72 -170 -189 -170h-245c-117 0 -189 60 -189 170v321c0 110 72 170 189 170
h245c117 0 189 -60 189 -170zM187 148c0 -45 13 -63 53 -63h303c40 0 53 18 53 63v365c0 45 -13 63 -53 63h-303c-40 0 -53 -18 -53 -63v-365z" />
    <glyph glyph-name="ring" unicode="&#x2da;" horiz-adv-x="312" 
d="M156 737c62 0 96 -27 96 -82s-34 -82 -96 -82s-96 27 -96 82s34 82 96 82zM156 622c23 0 37 13 37 33c0 21 -11 33 -37 33s-37 -12 -37 -33c0 -20 14 -33 37 -33z" />
    <glyph glyph-name="s" unicode="s" horiz-adv-x="527" 
d="M376 105v98c-61 13 -103 24 -202 47c-83 19 -124 42 -124 102v35c0 93 61 144 161 144h248v-77h-263c-34 0 -45 -7 -45 -28v-90c95 -23 114 -30 189 -48c93 -22 137 -42 137 -106v-38c0 -93 -61 -144 -161 -144h-256v77h271c34 0 45 7 45 28z" />
    <glyph glyph-name="sacute" unicode="&#x15b;" horiz-adv-x="527" 
d="M376 105v98c-61 13 -103 24 -202 47c-83 19 -124 42 -124 102v35c0 93 61 144 161 144h248v-77h-263c-34 0 -45 -7 -45 -28v-90c95 -23 114 -30 189 -48c93 -22 137 -42 137 -106v-38c0 -93 -61 -144 -161 -144h-256v77h271c34 0 45 7 45 28zM395 663l-228 -72l-18 48
l209 99z" />
    <glyph glyph-name="scaron" unicode="&#x161;" horiz-adv-x="527" 
d="M376 105v98c-61 13 -103 24 -202 47c-83 19 -124 42 -124 102v35c0 93 61 144 161 144h248v-77h-263c-34 0 -45 -7 -45 -28v-90c95 -23 114 -30 189 -48c93 -22 137 -42 137 -106v-38c0 -93 -61 -144 -161 -144h-256v77h271c34 0 45 7 45 28zM143 741l120 -104l120 104
h75l-145 -150h-100l-145 150h75z" />
    <glyph glyph-name="scedilla" unicode="&#x15f;" horiz-adv-x="527" 
d="M278 -107c4 21 -6 40 -32 40h-60l12 67h-138v77h271c34 0 45 7 45 28v98c-61 13 -103 24 -202 47c-83 19 -124 42 -124 102v35c0 93 61 144 161 144h248v-77h-263c-34 0 -45 -7 -45 -28v-90c95 -23 114 -30 189 -48c93 -22 137 -42 137 -106v-38
c0 -93 -61 -144 -161 -144h-58l-4 -29c66 0 103 -15 98 -78c-6 -72 -56 -90 -111 -90h-72l11 46h52c31 0 42 23 46 44z" />
    <glyph glyph-name="scircumflex" unicode="&#x15d;" horiz-adv-x="527" 
d="M376 105v98c-61 13 -103 24 -202 47c-83 19 -124 42 -124 102v35c0 93 61 144 161 144h248v-77h-263c-34 0 -45 -7 -45 -28v-90c95 -23 114 -30 189 -48c93 -22 137 -42 137 -106v-38c0 -93 -61 -144 -161 -144h-256v77h271c34 0 45 7 45 28zM263 695l-120 -104h-75
l145 150h100l145 -150h-75z" />
    <glyph glyph-name="scommaaccent" unicode="&#x219;" horiz-adv-x="527" 
d="M376 105v98c-61 13 -103 24 -202 47c-83 19 -124 42 -124 102v35c0 93 61 144 161 144h248v-77h-263c-34 0 -45 -7 -45 -28v-90c95 -23 114 -30 189 -48c93 -22 137 -42 137 -106v-38c0 -93 -61 -144 -161 -144h-256v77h271c34 0 45 7 45 28zM218 -111v81h121v-81
l-110 -109h-61z" />
    <glyph glyph-name="section" unicode="&#xa7;" horiz-adv-x="683" 
d="M496 -153v120c0 23 -11 32 -42 33h-185c-117 0 -189 50 -189 160v65c0 43 21 88 51 105c-30 17 -51 53 -51 96v65c0 110 72 170 189 170h324v-80h-353c-40 0 -53 -8 -53 -33v-111c0 -25 13 -33 53 -33h174c117 0 189 -30 189 -140v-94c0 -41 -20 -85 -49 -101
c29 -7 49 -50 49 -91v-74c0 -110 -72 -170 -189 -170h-334v80h363c40 0 53 8 53 33zM496 111v181c0 16 -10 23 -33 23h-243c-23 0 -33 -7 -33 -23v-181c0 -16 10 -23 33 -23h243c23 0 33 7 33 23z" />
    <glyph glyph-name="semicolon" unicode=";" horiz-adv-x="271" 
d="M100 371v111h121v-111h-121zM100 0v111h121v-111l-110 -129h-61z" />
    <glyph glyph-name="seven" unicode="7" horiz-adv-x="526" 
d="M260 148v-148h-107v148c0 35 6 75 24 103l198 325h-355v85h466v-88l-199 -329c-22 -37 -27 -64 -27 -96z" />
    <glyph glyph-name="seven_dnom" horiz-adv-x="306" 
d="M266 270l-127 -270h-88l121 268h-142v57h236v-55z" />
    <glyph glyph-name="seven_numr" horiz-adv-x="306" 
d="M266 606l-127 -270h-88l121 268h-142v57h236v-55z" />
    <glyph glyph-name="seven_old" horiz-adv-x="526" 
d="M260 18v-148h-107v148c0 35 6 75 24 103l198 325h-355v85h466v-88l-199 -329c-22 -37 -27 -64 -27 -96z" />
    <glyph glyph-name="seven_tnum" horiz-adv-x="631" 
d="M325 148v-148h-107v148c0 35 6 75 24 103l218 325h-405v85h516v-88l-219 -329c-22 -37 -27 -64 -27 -96z" />
    <glyph glyph-name="six" unicode="6" horiz-adv-x="631" 
d="M177 513v-107h200c117 0 189 -60 189 -170v-66c0 -110 -72 -170 -189 -170h-118c-117 0 -189 60 -189 170v321c0 110 72 170 189 170h272v-85h-301c-40 0 -53 -18 -53 -63zM177 148c0 -45 13 -63 53 -63h176c40 0 53 18 53 63v110c0 45 -13 63 -53 63h-229v-173z" />
    <glyph glyph-name="six_dnom" horiz-adv-x="306" 
d="M112 235v-35h66c61 0 98 -31 98 -89v-23c0 -57 -37 -88 -98 -88h-40c-61 0 -98 31 -98 88v149c0 57 37 88 98 88h120v-57h-119c-21 0 -27 -9 -27 -33zM112 90c0 -24 6 -33 27 -33h38c21 0 27 9 27 33v20c0 23 -6 33 -27 33h-65v-53z" />
    <glyph glyph-name="six_numr" horiz-adv-x="306" 
d="M112 571v-35h66c61 0 98 -31 98 -89v-23c0 -57 -37 -88 -98 -88h-40c-61 0 -98 31 -98 88v149c0 57 37 88 98 88h120v-57h-119c-21 0 -27 -9 -27 -33zM112 426c0 -24 6 -33 27 -33h38c21 0 27 9 27 33v20c0 23 -6 33 -27 33h-65v-53z" />
    <glyph glyph-name="six_old" horiz-adv-x="626" 
d="M177 513v-107h200c117 0 189 -60 189 -170v-66c0 -110 -72 -170 -189 -170h-118c-117 0 -189 60 -189 170v321c0 110 72 170 189 170h272v-85h-301c-40 0 -53 -18 -53 -63zM177 148c0 -45 13 -63 53 -63h176c40 0 53 18 53 63v110c0 45 -13 63 -53 63h-229v-173z" />
    <glyph glyph-name="slash" unicode="/" horiz-adv-x="611" 
d="M40 -180l430 911h101l-430 -911h-101z" />
    <glyph glyph-name="space" unicode=" " horiz-adv-x="323" 
 />
    <glyph glyph-name="sterling" unicode="&#xa3;" horiz-adv-x="654" 
d="M40 305v77h74v140c0 86 43 139 187 139h37c144 0 187 -53 187 -139v-44h-109v44c0 38 -13 66 -53 66h-89c-40 0 -53 -28 -53 -63v-143h150v-77h-150v-67c0 -49 -28 -119 -73 -161h386v-77h-494v77c55 35 74 111 74 228h-74z" />
    <glyph glyph-name="summation" unicode="&#x2211;" horiz-adv-x="601" 
d="M50 -23l285 288l-285 289v107h501v-85h-399l303 -311l-303 -310h399v-85h-501v107z" />
    <glyph glyph-name="t" unicode="t" horiz-adv-x="418" 
d="M378 454h-157v-320c0 -37 6 -57 45 -57h112v-77h-90c-117 0 -168 55 -168 145v309h-80v77h80l30 130h71v-130h157v-77z" />
    <glyph glyph-name="thorn" unicode="&#xfe;" 
d="M80 -180v911h100v-261c14 49 70 61 118 61h71c100 0 161 -51 161 -144v-243c0 -93 -61 -144 -161 -144h-71c-24 0 -94 2 -118 61v-241h-100zM181 400v-288c3 -25 12 -35 40 -35h163c34 0 45 15 45 54v269c0 37 -10 52 -40 54h-168c-30 -2 -40 -17 -40 -54z" />
    <glyph glyph-name="three" unicode="3" horiz-adv-x="631" 
d="M254 661h118c144 0 187 -54 187 -140v-60c0 -75 -51 -123 -104 -120c53 -3 106 -41 106 -119v-82c0 -86 -45 -140 -189 -140h-118c-144 0 -189 54 -189 140v21h107v-18c0 -36 17 -58 57 -58h172c40 0 53 28 53 63v72c0 35 -13 68 -53 68h-198v85h196c40 0 53 33 53 68v72
c0 35 -13 63 -53 63h-172c-38 0 -52 -16 -53 -50v-34h-107v29c0 86 43 140 187 140z" />
    <glyph glyph-name="three_dnom" horiz-adv-x="306" 
d="M123 325h50c70 0 91 -31 91 -79v-22c0 -36 -23 -56 -47 -56c24 -4 49 -20 49 -55v-34c0 -48 -23 -79 -93 -79h-50c-70 0 -93 27 -93 69v21h74v-9c0 -17 8 -28 28 -28h35c20 0 26 14 26 31v35c0 12 -9 20 -25 20h-70v47h69c17 0 25 9 25 30v35c0 17 -6 21 -26 21h-35
c-19 0 -26 -8 -26 -25v-15h-73v24c0 42 21 69 91 69z" />
    <glyph glyph-name="three_numr" horiz-adv-x="306" 
d="M123 661h50c70 0 91 -31 91 -79v-22c0 -36 -23 -56 -47 -56c24 -4 49 -20 49 -55v-34c0 -48 -23 -79 -93 -79h-50c-70 0 -93 27 -93 69v21h74v-9c0 -17 8 -28 28 -28h35c20 0 26 14 26 31v35c0 12 -9 20 -25 20h-70v47h69c17 0 25 9 25 30v35c0 17 -6 21 -26 21h-35
c-19 0 -26 -8 -26 -25v-15h-73v24c0 42 21 69 91 69z" />
    <glyph glyph-name="three_old" horiz-adv-x="631" 
d="M254 532h118c144 0 187 -54 187 -140v-60c0 -75 -51 -123 -104 -120c53 -3 106 -41 106 -119v-82c0 -86 -45 -140 -189 -140h-118c-144 0 -189 54 -189 140v21h107v-18c0 -36 17 -58 57 -58h172c40 0 53 28 53 63v72c0 35 -13 68 -53 68h-198v85h196c40 0 53 33 53 68v72
c0 35 -13 63 -53 63h-172c-38 0 -52 -16 -53 -50v-34h-107v29c0 86 43 140 187 140z" />
    <glyph glyph-name="threequarters" unicode="&#xbe;" horiz-adv-x="664" 
d="M497 661h81l-390 -661h-81zM509 325h71v-209h34v-52h-34v-64h-68v64h-163v57zM143 661h50c70 0 91 -31 91 -79v-22c0 -36 -23 -56 -47 -56c24 -4 49 -20 49 -55v-34c0 -48 -23 -79 -93 -79h-50c-70 0 -93 27 -93 69v21h74v-9c0 -17 8 -28 28 -28h35c20 0 26 14 26 31v35
c0 12 -9 20 -25 20h-70v47h69c17 0 25 9 25 30v35c0 17 -6 21 -26 21h-35c-19 0 -26 -8 -26 -25v-15h-73v24c0 42 21 69 91 69zM512 242l-92 -126h92v126z" />
    <glyph glyph-name="threesuperior" unicode="&#xb3;" horiz-adv-x="376" 
d="M204 657h-43c-20 0 -27 -9 -27 -29h-93v30c0 45 23 73 98 73h98c75 0 98 -28 98 -73v-32c0 -37 -26 -63 -53 -62c27 -3 54 -22 54 -62v-43c0 -45 -24 -73 -99 -73h-98c-75 0 -99 28 -99 73v31h83c0 -18 8 -30 28 -30h59c21 0 27 4 27 23v17c0 18 -6 22 -27 22h-72v73h66
c21 0 28 5 28 22v17c0 19 -7 23 -28 23z" />
    <glyph glyph-name="tilde" unicode="&#x2dc;" horiz-adv-x="510" 
d="M347 596c-88 0 -135 64 -185 64c-37 0 -53 -19 -69 -52l-43 24c30 72 66 100 116 100c87 0 131 -65 183 -65c37 0 52 20 68 53l43 -25c-30 -72 -65 -99 -113 -99z" />
    <glyph glyph-name="trademark" unicode="&#x2122;" horiz-adv-x="938" 
d="M531 386l-90 257v-257h-77v345h123l93 -266l85 266h113v-345h-78v257l-89 -257h-80zM50 663v68h276v-68h-102v-277h-72v277h-102z" />
    <glyph glyph-name="two" unicode="2" horiz-adv-x="631" 
d="M454 417v116c0 35 -13 43 -53 43h-171c-40 0 -53 -8 -53 -46v-72h-107v63c0 86 43 140 187 140h117c144 0 187 -54 187 -140v-85c0 -53 -26 -92 -63 -117l-323 -234h386v-85h-487v52c0 46 31 83 62 106l286 216c15 10 32 30 32 43z" />
    <glyph glyph-name="two_dnom" horiz-adv-x="316" 
d="M204 203v44c0 17 -6 21 -26 21h-39c-20 0 -26 -4 -26 -23v-30h-73v41c0 42 21 69 92 69h52c71 0 92 -27 92 -69v-48c0 -26 -13 -47 -31 -59l-125 -92h156v-57h-234v39c0 23 15 41 31 52l116 91c7 5 15 15 15 21z" />
    <glyph glyph-name="two_numr" horiz-adv-x="316" 
d="M204 539v44c0 17 -6 21 -26 21h-39c-20 0 -26 -4 -26 -23v-30h-73v41c0 42 21 69 92 69h52c71 0 92 -27 92 -69v-48c0 -26 -13 -47 -31 -59l-125 -92h156v-57h-234v39c0 23 15 41 31 52l116 91c7 5 15 15 15 21z" />
    <glyph glyph-name="two_old" horiz-adv-x="631" 
d="M454 347v56c0 35 -13 43 -53 43h-171c-40 0 -53 -8 -53 -46v-32h-107v23c0 86 43 140 187 140h117c144 0 187 -54 187 -140v-25c0 -53 -26 -92 -63 -117l-323 -164h386v-85h-487v52c0 46 28 86 62 104l286 148c15 10 32 30 32 43z" />
    <glyph glyph-name="twosuperior" unicode="&#xb2;" horiz-adv-x="383" 
d="M241 619v15c0 19 -7 23 -28 23h-43c-20 0 -27 -4 -27 -24v-29h-103v54c0 45 23 73 98 73h107c75 0 98 -28 98 -73v-40c0 -27 -13 -48 -33 -61l-149 -93h182v-78h-301v59c0 19 15 39 32 48l150 104c8 4 17 15 17 22z" />
    <glyph glyph-name="u" unicode="u" 
d="M221 0c-100 0 -161 51 -161 144v387h101v-400c0 -37 10 -52 40 -54h168c30 2 40 17 40 54v400h101v-531h-100v61c-24 -59 -80 -61 -158 -61h-31z" />
    <glyph glyph-name="uacute" unicode="&#xfa;" 
d="M221 0c-100 0 -161 51 -161 144v387h101v-400c0 -37 10 -52 40 -54h168c30 2 40 17 40 54v400h101v-531h-100v61c-24 -59 -80 -61 -158 -61h-31zM417 663l-228 -72l-18 48l209 99z" />
    <glyph glyph-name="ubreve" unicode="&#x16d;" 
d="M221 0c-100 0 -161 51 -161 144v387h101v-400c0 -37 10 -52 40 -54h168c30 2 40 17 40 54v400h101v-531h-100v61c-24 -59 -80 -61 -158 -61h-31zM300 591h-31c-93 3 -162 45 -162 122h85c0 -20 16 -66 93 -66s93 46 93 66h85c0 -77 -70 -119 -163 -122z" />
    <glyph glyph-name="ucircumflex" unicode="&#xfb;" 
d="M221 0c-100 0 -161 51 -161 144v387h101v-400c0 -37 10 -52 40 -54h168c30 2 40 17 40 54v400h101v-531h-100v61c-24 -59 -80 -61 -158 -61h-31zM285 695l-120 -104h-75l145 150h100l145 -150h-75z" />
    <glyph glyph-name="udieresis" unicode="&#xfc;" 
d="M221 0c-100 0 -161 51 -161 144v387h101v-400c0 -37 10 -52 40 -54h168c30 2 40 17 40 54v400h101v-531h-100v61c-24 -59 -80 -61 -158 -61h-31zM139 591v111h121v-111h-121zM310 591v111h121v-111h-121z" />
    <glyph glyph-name="ugrave" unicode="&#xf9;" 
d="M221 0c-100 0 -161 51 -161 144v387h101v-400c0 -37 10 -52 40 -54h168c30 2 40 17 40 54v400h101v-531h-100v61c-24 -59 -80 -61 -158 -61h-31zM374 591l-228 72l37 75l209 -99z" />
    <glyph glyph-name="uhungarumlaut" unicode="&#x171;" 
d="M221 0c-100 0 -161 51 -161 144v387h101v-400c0 -37 10 -52 40 -54h168c30 2 40 17 40 54v400h101v-531h-100v61c-24 -59 -80 -61 -158 -61h-31zM291 701l-147 -110l-40 40l127 126zM467 701l-147 -110l-40 40l127 126z" />
    <glyph glyph-name="umacron" unicode="&#x16b;" 
d="M221 0c-100 0 -161 51 -161 144v387h101v-400c0 -37 10 -52 40 -54h168c30 2 40 17 40 54v400h101v-531h-100v61c-24 -59 -80 -61 -158 -61h-31zM111 591v80h348v-80h-348z" />
    <glyph glyph-name="underscore" unicode="_" horiz-adv-x="597" 
d="M0 -180v77h597v-77h-597z" />
    <glyph glyph-name="uogonek" unicode="&#x173;" 
d="M436 -80c-8 -41 13 -71 52 -71h15v-46h-28c-73 0 -116 48 -103 112c9 43 42 65 77 85h-39v61c-24 -59 -80 -61 -158 -61h-31c-100 0 -161 51 -161 144v387h101v-400c0 -37 10 -52 40 -54h168c30 2 40 17 40 54v400h101v-531c-45 -27 -69 -55 -74 -80z" />
    <glyph glyph-name="uring" unicode="&#x16f;" 
d="M221 0c-100 0 -161 51 -161 144v387h101v-400c0 -37 10 -52 40 -54h168c30 2 40 17 40 54v400h101v-531h-100v61c-24 -59 -80 -61 -158 -61h-31zM285 755c62 0 96 -27 96 -82s-34 -82 -96 -82s-96 27 -96 82s34 82 96 82zM285 640c23 0 37 13 37 33c0 21 -11 33 -37 33
s-37 -12 -37 -33c0 -20 14 -33 37 -33z" />
    <glyph glyph-name="utilde" unicode="&#x169;" 
d="M221 0c-100 0 -161 51 -161 144v387h101v-400c0 -37 10 -52 40 -54h168c30 2 40 17 40 54v400h101v-531h-100v61c-24 -59 -80 -61 -158 -61h-31zM377 591c-88 0 -135 64 -185 64c-37 0 -53 -19 -69 -52l-43 24c30 72 66 100 116 100c87 0 131 -65 183 -65
c37 0 52 20 68 53l43 -25c-30 -72 -65 -99 -113 -99z" />
    <glyph glyph-name="v" unicode="v" horiz-adv-x="549" 
d="M529 531l-189 -531h-131l-189 531h99l155 -455l156 455h99z" />
    <glyph glyph-name="w" unicode="w" horiz-adv-x="779" 
d="M159 0l-139 531h99l105 -455l106 455h119l105 -455l106 455h99l-139 -531h-131l-100 455l-99 -455h-131z" />
    <glyph glyph-name="wacute" unicode="&#x1e83;" horiz-adv-x="779" 
d="M159 0l-139 531h99l105 -455l106 455h119l105 -455l106 455h99l-139 -531h-131l-100 455l-99 -455h-131zM521 663l-228 -72l-18 48l209 99z" />
    <glyph glyph-name="wcircumflex" unicode="&#x175;" horiz-adv-x="779" 
d="M159 0l-139 531h99l105 -455l106 455h119l105 -455l106 455h99l-139 -531h-131l-100 455l-99 -455h-131zM389 695l-120 -104h-75l145 150h100l145 -150h-75z" />
    <glyph glyph-name="wdieresis" unicode="&#x1e85;" horiz-adv-x="779" 
d="M159 0l-139 531h99l105 -455l106 455h119l105 -455l106 455h99l-139 -531h-131l-100 455l-99 -455h-131zM243 591v111h121v-111h-121zM414 591v111h121v-111h-121z" />
    <glyph glyph-name="wgrave" unicode="&#x1e81;" horiz-adv-x="779" 
d="M159 0l-139 531h99l105 -455l106 455h119l105 -455l106 455h99l-139 -531h-131l-100 455l-99 -455h-131zM478 591l-228 72l37 75l209 -99z" />
    <glyph glyph-name="x" unicode="x" horiz-adv-x="546" 
d="M354 265l172 -265h-118l-134 219l-146 -219h-108l175 265l-162 266h108l133 -221l137 221h108z" />
    <glyph glyph-name="y" unicode="y" horiz-adv-x="549" 
d="M529 531l-253 -711h-82l38 114l-212 597h99l155 -455l156 455h99z" />
    <glyph glyph-name="yacute" unicode="&#xfd;" horiz-adv-x="549" 
d="M529 531l-253 -711h-82l38 114l-212 597h99l155 -455l156 455h99zM406 663l-228 -72l-18 48l209 99z" />
    <glyph glyph-name="ycircumflex" unicode="&#x177;" horiz-adv-x="549" 
d="M529 531l-253 -711h-82l38 114l-212 597h99l155 -455l156 455h99zM274 695l-120 -104h-75l145 150h100l145 -150h-75z" />
    <glyph glyph-name="ydieresis" unicode="&#xff;" horiz-adv-x="549" 
d="M529 531l-253 -711h-82l38 114l-212 597h99l155 -455l156 455h99zM128 591v111h121v-111h-121zM299 591v111h121v-111h-121z" />
    <glyph glyph-name="yen" unicode="&#xa5;" horiz-adv-x="627" 
d="M10 661h118l185 -360l186 360h118l-158 -282h103v-77h-146l-30 -53h176v-77h-195v-172h-107v172h-195v77h175l-29 53h-146v77h103z" />
    <glyph glyph-name="ygrave" unicode="&#x1ef3;" horiz-adv-x="549" 
d="M529 531l-253 -711h-82l38 114l-212 597h99l155 -455l156 455h99zM363 591l-228 72l37 75l209 -99z" />
    <glyph glyph-name="z" unicode="z" horiz-adv-x="511" 
d="M471 448l-323 -371h323v-77h-431v83h1l323 371h-307v77h414v-83z" />
    <glyph glyph-name="zacute" unicode="&#x17a;" horiz-adv-x="511" 
d="M471 448l-323 -371h323v-77h-431v83h1l323 371h-307v77h414v-83zM387 663l-228 -72l-18 48l209 99z" />
    <glyph glyph-name="zcaron" unicode="&#x17e;" horiz-adv-x="511" 
d="M471 448l-323 -371h323v-77h-431v83h1l323 371h-307v77h414v-83zM135 741l120 -104l120 104h75l-145 -150h-100l-145 150h75z" />
    <glyph glyph-name="zdotaccent" unicode="&#x17c;" horiz-adv-x="511" 
d="M471 448l-323 -371h323v-77h-431v83h1l323 371h-307v77h414v-83zM195 591v111h121v-111h-121z" />
    <glyph glyph-name="zero" unicode="0" horiz-adv-x="631" 
d="M561 491v-321c0 -110 -72 -170 -189 -170h-113c-117 0 -189 60 -189 170v321c0 110 72 170 189 170h113c117 0 189 -60 189 -170zM177 148c0 -45 13 -63 53 -63h171c40 0 53 18 53 63v365c0 45 -13 63 -53 63h-171c-40 0 -53 -18 -53 -63v-365z" />
    <glyph glyph-name="zero_dnom" horiz-adv-x="335" 
d="M295 237v-149c0 -57 -37 -88 -98 -88h-59c-61 0 -98 31 -98 88v149c0 57 37 88 98 88h59c61 0 98 -31 98 -88zM113 90c0 -24 7 -33 28 -33h53c21 0 28 9 28 33v145c0 24 -7 33 -28 33h-53c-21 0 -28 -9 -28 -33v-145z" />
    <glyph glyph-name="zero_numr" horiz-adv-x="335" 
d="M295 573v-149c0 -57 -37 -88 -98 -88h-59c-61 0 -98 31 -98 88v149c0 57 37 88 98 88h59c61 0 98 -31 98 -88zM113 426c0 -24 7 -33 28 -33h53c21 0 28 9 28 33v145c0 24 -7 33 -28 33h-53c-21 0 -28 -9 -28 -33v-145z" />
    <glyph glyph-name="zero_old" horiz-adv-x="631" 
d="M561 361v-191c0 -110 -72 -170 -189 -170h-113c-117 0 -189 60 -189 170v191c0 110 72 170 189 170h113c117 0 189 -60 189 -170zM177 148c0 -45 13 -63 53 -63h171c40 0 53 18 53 63v235c0 45 -13 63 -53 63h-171c-40 0 -53 -18 -53 -63v-235z" />
    <glyph glyph-name="ffl" unicode="&#xfb04;" horiz-adv-x="952" 
d="M783 731h101v-731h-101v731zM288 731h40v-77h-62c-39 0 -45 -20 -45 -57v-66h229v85c0 90 51 145 168 145h40v-77h-62c-39 0 -45 -20 -45 -57v-96h97v-77h-97v-454h-101v454h-229v-454h-101v454h-80v77h80v55c0 90 51 145 168 145z" />
    <glyph glyph-name="fl" unicode="&#xfb02;" horiz-adv-x="629" 
d="M288 731h40v-77h-62c-39 0 -45 -20 -45 -57v-66h97v-77h-97v-454h-101v454h-80v77h80v55c0 90 51 145 168 145zM448 731h101v-731h-101v731z" />
    <glyph glyph-name="fi" unicode="&#xfb01;" horiz-adv-x="649" 
d="M288 731h40v-77h-62c-39 0 -45 -20 -45 -57v-66h338v-531h-101v454h-237v-454h-101v454h-80v77h80v55c0 90 51 145 168 145zM448 731h121v-111h-121v111z" />
    <glyph glyph-name="Lcommaaccent" unicode="&#x13b;" horiz-adv-x="567" 
d="M80 0v661h107v-576h350v-85h-457zM248 -111v81h121v-81l-110 -109h-61z" />
    <glyph glyph-name="Lcaron" unicode="&#x13d;" horiz-adv-x="567" 
d="M80 0v661h107v-576h350v-85h-457zM291 549v111h121v-111l-110 -129h-61z" />
    <glyph glyph-name="Ldot" unicode="&#x13f;" horiz-adv-x="567" 
d="M80 0v661h107v-576h350v-85h-457zM303 302v111h121v-111h-121z" />
    <glyph glyph-name="Tbar" unicode="&#x166;" horiz-adv-x="621" 
d="M40 580v81h541v-81h-217v-209h135v-81h-135v-290h-107v290h-131v81h131v209h-217z" />
    <glyph glyph-name="Oslash" unicode="&#xd8;" horiz-adv-x="673" 
d="M613 491v-321c0 -110 -72 -170 -189 -170h-175c-73 0 -128 23 -160 67l-79 -67v90l53 44c-2 11 -3 23 -3 36v321c0 110 72 170 189 170h175c79 0 137 -28 167 -80l82 70v-90l-61 -51c1 -6 1 -13 1 -19zM167 513v-291l339 287v4c0 45 -13 63 -53 63h-233
c-40 0 -53 -18 -53 -63zM453 85c40 0 53 18 53 63v272l-339 -287c3 -34 17 -48 53 -48h233z" />
    <glyph glyph-name="Oslashacute" unicode="&#x1fe;" horiz-adv-x="673" 
d="M613 491v-321c0 -110 -72 -170 -189 -170h-175c-73 0 -128 23 -160 67l-79 -67v90l53 44c-2 11 -3 23 -3 36v321c0 110 72 170 189 170h175c79 0 137 -28 167 -80l82 70v-90l-61 -51c1 -6 1 -13 1 -19zM167 513v-291l339 287v4c0 45 -13 63 -53 63h-233
c-40 0 -53 -18 -53 -63zM453 85c40 0 53 18 53 63v272l-339 -287c3 -34 17 -48 53 -48h233zM468 773l-228 -72l-18 48l209 99z" />
    <glyph glyph-name="dcroat" unicode="&#x111;" 
d="M510 731v-70h43v-80h-43v-581h-100v61c-24 -59 -80 -61 -158 -61h-31c-100 0 -161 51 -161 144v243c0 93 61 144 161 144h31c78 0 134 -2 158 -61v111h-150v80h150v70h100zM409 112v288c0 37 -10 52 -40 54h-168c-30 -2 -40 -17 -40 -54v-269c0 -39 11 -54 45 -54h163
c28 0 37 10 40 35z" />
    <glyph glyph-name="lslash" unicode="&#x142;" horiz-adv-x="261" 
d="M80 0v296l-78 -67v95l78 67v340h101v-254l78 67v-95l-78 -67v-382h-101z" />
    <glyph glyph-name="oslash" unicode="&#xf8;" horiz-adv-x="588" 
d="M528 387v-243c0 -93 -61 -144 -160 -144h-148c-62 0 -109 20 -136 57l-74 -57v90l50 39v15v243c0 93 61 144 160 144h148c63 0 111 -21 137 -60l78 60v-90l-56 -43c0 -4 1 -7 1 -11zM161 400v-194l266 205c-2 31 -15 43 -45 43h-176c-34 0 -45 -15 -45 -54zM382 77
c34 0 45 15 45 54v190l-266 -204c3 -29 15 -40 45 -40h176z" />
    <glyph glyph-name="oslashacute" unicode="&#x1ff;" horiz-adv-x="588" 
d="M528 387v-243c0 -93 -61 -144 -160 -144h-148c-62 0 -109 20 -136 57l-74 -57v90l50 39v15v243c0 93 61 144 160 144h148c63 0 111 -21 137 -60l78 60v-90l-56 -43c0 -4 1 -7 1 -11zM161 400v-194l266 205c-2 31 -15 43 -45 43h-176c-34 0 -45 -15 -45 -54zM382 77
c34 0 45 15 45 54v190l-266 -204c3 -29 15 -40 45 -40h176zM426 663l-228 -72l-18 48l209 99z" />
    <glyph glyph-name="tbar" unicode="&#x167;" horiz-adv-x="418" 
d="M378 454h-157v-133h157v-80h-157v-107c0 -37 6 -57 45 -57h112v-77h-90c-117 0 -168 55 -168 145v96h-80v80h80v133h-80v77h80l30 130h71v-130h157v-77z" />
    <glyph glyph-name="tcommaaccent" unicode="&#x163;" horiz-adv-x="418" 
d="M378 454h-157v-320c0 -37 6 -57 45 -57h112v-77h-90c-117 0 -168 55 -168 145v309h-80v77h80l30 130h71v-130h157v-77zM173 -111v81h121v-81l-110 -109h-61z" />
    <glyph glyph-name="tcaron" unicode="&#x165;" horiz-adv-x="634" 
d="M378 454h-157v-320c0 -37 6 -57 45 -57h112v-77h-90c-117 0 -168 55 -168 145v309h-80v77h80l30 130h71v-130h157v-77zM468 571v111h121v-111l-110 -129h-61z" />
    <glyph glyph-name="Dcaron" unicode="&#x10e;" horiz-adv-x="668" 
d="M608 491v-321c0 -110 -82 -170 -199 -170h-329v661h329c117 0 199 -60 199 -170zM187 576v-491h251c40 0 63 18 63 63v365c0 45 -23 63 -63 63h-251zM214 861l120 -104l120 104h75l-145 -150h-100l-145 150h75z" />
    <glyph glyph-name="Lslash" unicode="&#x141;" horiz-adv-x="567" 
d="M80 0v234l-70 -55v85l70 55v342h107v-258l180 141v-85l-180 -141v-233h350v-85h-457z" />
    <glyph glyph-name="Hbar" unicode="&#x126;" horiz-adv-x="732" 
d="M545 0v279h-358v-279h-107v481h-50v81h50v99h107v-99h358v99h107v-99h44v-81h-44v-481h-107zM187 364h358v117h-358v-117z" />
  </font>
</defs>
</svg>
